<?xml version="1.0" encoding="utf-8"?>
<svg viewBox="40.5722 254.78 295.4862 416.251" xmlns="http://www.w3.org/2000/svg">
  <defs>
    <style>.cls-1{fill:#30292b;}.cls-2{fill:#fffafb;}.cls-3,.cls-9{opacity:0.39;}.cls-4,.cls-7,.cls-9{fill:#0c0c0c;}.cls-5{opacity:0.15;}.cls-6{fill:#fff;}.cls-7{opacity:0.44;}.cls-8{fill:none;stroke:#fff;stroke-miterlimit:10;stroke-width:12px;}.cls-10{fill:#070707;}.cls-11{fill:#011712;}.cls-12{fill:#c47600;}.cls-13{fill:#848484;}</style>
  </defs>
  <path class="cls-1" d="M85.09,550.09c4.24-1.34,3.86-7.21,2.28-10.84A52.13,52.13,0,0,0,80.68,528c-6.49-7.54-8.53-14.87-7.12-25,1.55-11.17,11.46-20.9,22.71-25.85S120,471.24,132,471.07s24.07.38,36-1.86c-5.09,12.26-3.84,25.77-1.5,38.11-13.33-2-31-1.78-44.62,1.48-2.67.64-5.43,1.43-7.56,3.16-3.91,3.19-4.82,6.45-1.57,12.46,2.14,4,5.83,9.67,7.8,13.73a26.94,26.94,0,0,1-16.72,38.19Z"/>
  <path class="cls-2" d="M105.49,476.46a1.88,1.88,0,0,1,.78-1.68,3,3,0,0,1,3.46-.31c11.34,8,16.63,20.61,14.17,33.62a2.8,2.8,0,0,1-2.78,1.92c-1.34,0-2.26-.83-2.06-1.88,2.21-11.69-2.74-23.44-12.94-30.68A1.43,1.43,0,0,1,105.49,476.46Z"/>
  <path class="cls-1" d="M104.78,576.23c-1.36-8.64-4.86-13.65-7.85-16.64-5.38-5.39-7.7-6.19-19.77-12.31-5.26-2.66-8.65-7.43-10.91-12.49-1-2.27-1.17-7.34-1.16-9.9,0-5.14,4.22-10.14,9.08-10.85,2.55-.37,5.09.31,7.65.14s7.34-1.91,6.92-4.51c-1.65-10.28-26.12-9.14-36,.85s-12.38,26.29-7.82,39.1,15.24,22.17,27.36,27c5,2,19.62,4.41,25.28,1.36Z"/>
  <g class="cls-3">
    <path class="cls-4" d="M128.44,472.08c-2,.16-26,2.33-37.63,20.13-1.22,1.86-10.11,15.48-5.13,25.09,2.22,4.28,5.76,5,8.13,11.4a18.2,18.2,0,0,1,.37,12.48c-1.42,4.14-5.35,8-9.93,8.39,1.41-5.24.2-12.19-2-16.87s-5.56-8.74-8.87-12.76a38.86,38.86,0,0,1,6.79-30C90.32,476.16,109.62,468.9,128.44,472.08Z"/>
  </g>
  <path class="cls-2" d="M73.5,504.52a.41.41,0,0,1,0-.24c.36-1.39,2.74-2.44,5.31-2.34,14,.55,26.8,4.18,35.2,9.94a1.81,1.81,0,0,1,.92,1.58,2.63,2.63,0,0,1-1.9,2,3.77,3.77,0,0,1-3.06-1c-5.42-4.28-27.1-9.71-32.92-9.42C76.5,505,73.65,505.24,73.5,504.52Z"/>
  <path class="cls-2" d="M85.58,539a1.74,1.74,0,0,1,.8-1.64l1.4-1a52.08,52.08,0,0,1,7.82-4.73c7.94-3.63,17.66-3,24.16,1.59a1.51,1.51,0,0,1,.2,2.27,1.91,1.91,0,0,1-2.48.39c-5.54-3.9-13.81-4.44-20.58-1.35a49.23,49.23,0,0,0-7.21,4.38l-1.42,1a1.79,1.79,0,0,1-2.42-.28A1.48,1.48,0,0,1,85.58,539Z"/>
  <path class="cls-2" d="M87.2,547.12a2.2,2.2,0,0,1,2.09-.3l1.57.66a41.43,41.43,0,0,1,8.1,4c7,4.84,9.91,13.88,7.36,22.5a2.33,2.33,0,0,1-2.41,1.57,1.5,1.5,0,0,1-1.36-2,17.21,17.21,0,0,0-6.26-19.16,39,39,0,0,0-7.49-3.72l-1.6-.67a1.53,1.53,0,0,1-.61-2.33A2.48,2.48,0,0,1,87.2,547.12Z"/>
  <path d="M71.68,513.23a37.18,37.18,0,0,1,.14-10.29c1.51-10.85,10.86-21.54,23.83-27.25,11.88-5.23,25.09-6.09,36.44-6.24,2.45,0,4.92,0,7.32-.05,9.36,0,19,0,28.4-1.79l2.91-.54-1.09,2.6c-5.15,12.4-3.46,26.4-1.4,37.22l.46,2.43-2.63-.39c-14.16-2.12-31.39-1.55-43.89,1.44-2.3.55-4.92,1.27-6.76,2.77-3,2.47-4.1,4.86-1.08,10.45.87,1.61,2,3.49,3.17,5.49,1.71,2.87,3.48,5.84,4.67,8.29a29.14,29.14,0,0,1,1.07,23.4,29.47,29.47,0,0,1-19.07,17.14,1.61,1.61,0,0,1-2.07-1.1,1.81,1.81,0,0,1,1.39-2A25.48,25.48,0,0,0,120,559.9a26.13,26.13,0,0,0-1-21c-1.13-2.34-2.87-5.26-4.55-8.08-1.2-2-2.33-3.93-3.23-5.59-3.41-6.31-2.81-10.5,2.07-14.48,2.51-2,5.63-2.91,8.37-3.56,12.18-2.92,28.66-3.61,42.73-1.87-1.77-10.12-2.89-22.51,1.08-34.07-8.81,1.35-17.7,1.37-26.32,1.38-2.39,0-4.85,0-7.27,0-11,.15-23.68,1-34.92,5.91-11.78,5.19-20.26,14.78-21.6,24.45s.61,16.65,6.79,23.83A54.13,54.13,0,0,1,89,538.52c1.16,2.68,1.93,6.9.26,10a6.34,6.34,0,0,1-3.76,3.1,1.63,1.63,0,0,1-2.13-1,1.76,1.76,0,0,1,1.29-2.07,2.46,2.46,0,0,0,1.49-1.25c1-1.87.54-5.1-.42-7.32a51.34,51.34,0,0,0-6.47-10.92C75,524.05,72.49,519,71.68,513.23Z"/>
  <path class="cls-2" d="M48.46,559.35a1.29,1.29,0,0,1,0-.55,1.93,1.93,0,0,1,2.09-1.42c4.51.52,10.73-.18,14.44-2.91,3-2.24,6.14-6.31,4.93-10.43A1.77,1.77,0,0,1,71.2,542a1.63,1.63,0,0,1,2.15,1c1.68,5.68-2.35,11.11-6.3,14-4.9,3.62-12.34,4.24-17.22,3.67A1.49,1.49,0,0,1,48.46,559.35Z"/>
  <path class="cls-2" d="M70.18,574.77a1.4,1.4,0,0,1-.31-.44,1.71,1.71,0,0,1,1-2.2c4.29-2,9.32-5.79,10.9-9.85,1.3-3.33,1.53-8.1-2-10.65a1.51,1.51,0,0,1-.19-2.27A1.9,1.9,0,0,1,82,549c5,3.51,4.73,9.82,3,14.15-2.09,5.37-8.24,9.77-12.88,11.91A1.79,1.79,0,0,1,70.18,574.77Z"/>
  <path class="cls-2" d="M41.09,530.33a1.79,1.79,0,0,1,1.13-1.82,1.68,1.68,0,0,1,2.26.76c1.33,3.15,5.51,5.77,9.52,6a11.09,11.09,0,0,0,9.53-4.45,1.9,1.9,0,0,1,2.46-.52,1.49,1.49,0,0,1,.33,2.24,14.87,14.87,0,0,1-12.83,6c-5.24-.25-10.53-3.61-12.3-7.8A1.61,1.61,0,0,1,41.09,530.33Z"/>
  <path class="cls-2" d="M72.32,510.69a8,8,0,0,1-.07-1,14.7,14.7,0,0,1,1.61-5.7,2,2,0,0,1,2.31-1.06A1.48,1.48,0,0,1,77.1,505a11.91,11.91,0,0,0-1.34,4.41,3.19,3.19,0,0,0,1.44,2.88,1.49,1.49,0,0,1,.56,2.19,1.94,1.94,0,0,1-2.42.73A5.81,5.81,0,0,1,72.32,510.69Z"/>
  <path d="M41,540.81c-1.51-10.88.73-23,10.7-31.45C61,501.5,74.26,499.72,82.57,502c4.5,1.25,7.23,3.6,7.68,6.64A4.66,4.66,0,0,1,89,512.59a11.34,11.34,0,0,1-7.18,3.21,23.74,23.74,0,0,1-3.7-.11,17.32,17.32,0,0,0-3.8,0c-3.93.58-7.4,4.83-7.43,9.1,0,3.16.24,7.5,1,9.3.61,1.37,3.66,9.65,12.2,13.05,3.39,1.34,7.23,1.78,7.11,3-.08.8-1.83,1.4-2,1.47-6,2-16.63-5.94-20.55-16-1-2.55-1.31-6-1.28-10.49,0-6,5-11.75,10.71-12.6a20.72,20.72,0,0,1,4.66,0,19.88,19.88,0,0,0,3.15.11,7.51,7.51,0,0,0,4.48-1.89,1.44,1.44,0,0,0,.43-1.26c-.27-1.81-2.27-3.36-5.48-4.25-7.18-2-19.23-.37-27.42,6.53-11.65,9.82-11.39,25.71-7.26,37.3S60.38,570,73.12,575.15c4.66,1.87,14.33,2.91,19.87,2.6,2.53-.15,8.9-1.66,11.23-3a1.76,1.76,0,0,1,2.38.47,1.66,1.66,0,0,1-.72,2.25c-3.06,1.77-10,3.37-13,3.54-5.93.34-16.18-.74-21.4-2.84-13.55-5.44-23.83-15.61-28.21-27.9A47.84,47.84,0,0,1,41,540.81Z"/>
  <path class="cls-2" d="M53.24,509.68a1.8,1.8,0,0,1,1.4-1.91,1.59,1.59,0,0,1,2.06,1.1c.52,2.38,1.11,5.09,2.72,6.94,1.35,1.54,3.95,2.7,6.11,1.81a1.67,1.67,0,0,1,2.24.79,1.74,1.74,0,0,1-1.07,2.17A9.09,9.09,0,0,1,56.61,518c-2.09-2.4-2.76-5.49-3.36-8.21C53.25,509.75,53.24,509.72,53.24,509.68Z"/>
  <g class="cls-5">
    <path class="cls-6" d="M57.45,550.12C59.81,555.65,64,560.59,69.81,563c2.13.87,5.36,1,6.46-1.07a3.6,3.6,0,0,0,.34-1.9c-.22-4.09-3.48-7.14-6.46-9.93a44.52,44.52,0,0,1-8.36-9.7,19.21,19.21,0,0,1-2.76-11c.16-2.61.17-8.57-3.71-3.92C50.76,531,55.23,544.9,57.45,550.12Z"/>
  </g>
  <path class="cls-1" d="M189.13,367.57H251v77.84s49-7,61.59,37.83c0,0,17,8,20.61,24.73,4.05,18.82-9.6,34.19-14.24,39.29-5.9,6.48-14.45,12.86-27.27,17.26-48,16.48-146.41,1.4-159-44.66a43.52,43.52,0,0,1,.91-24.64c9.93-29.43,49.5-36.91,53.9-37.68Q188.28,412.56,189.13,367.57Z"/>
  <g class="cls-5">
    <path class="cls-6" d="M161.84,510c2.36,5.53,6.51,10.47,12.36,12.85,2.13.87,5.36,1,6.46-1.07a3.63,3.63,0,0,0,.34-1.91c-.22-4.08-3.48-7.13-6.46-9.92a44.52,44.52,0,0,1-8.36-9.7,19.21,19.21,0,0,1-2.76-11c.16-2.61.17-8.58-3.71-3.92C155.15,490.88,159.62,504.81,161.84,510Z"/>
  </g>
  <path class="cls-6" d="M299,565l-5.89,2.52c1.64-12-.5-22.15-6.37-30.28a30.57,30.57,0,0,0-9.4-8.73l2.54-5a40.68,40.68,0,0,1,11.2,10.18C300.56,546.39,299.47,560.8,299,565Z"/>
  <path class="cls-6" d="M231.93,573.86l-6.72-.82c17.44-20.95,6.48-39,6-39.77l4.6-.82a12.9,12.9,0,0,1,2.06,1.82c5.09,5.51,4.14,13.77,3.64,18.12A41.11,41.11,0,0,1,231.93,573.86Z"/>
  <path class="cls-6" d="M176,561.29l-4.13-3.52a38.39,38.39,0,0,0,21-17.66A37.85,37.85,0,0,0,197,516l6.28,3.92a42.48,42.48,0,0,1-5.48,22.88A43,43,0,0,1,176,561.29Z"/>
  <path class="cls-6" d="M141.72,533.47l-7.5-3.83c1.11-3.21,7.1-19.48,24.79-28.14a49.87,49.87,0,0,1,34.65-3.17l-2.24,8.25a41.8,41.8,0,0,0-28.67,2.62C148.31,516.21,143,529.55,141.72,533.47Z"/>
  <path class="cls-6" d="M140.83,489l-3.63-2.62A39.49,39.49,0,0,1,188.85,476l-2.56,5a41.35,41.35,0,0,0-24.06-4.17A31.9,31.9,0,0,0,140.83,489Z"/>
  <path class="cls-7" d="M206.35,371.24c-1.6,15.37-8,81,0,120.79,1.33,6.62,3.81,16.17,11.82,23.19,14,12.28,35,8,38.37,7.3,13.84-2.83,22.7-10.45,30.19-16.94A99,99,0,0,0,310,475.84q1.36,4.95,2.72,9.9l-15,25.48-25.83,18.36L251.29,533l-30-2.19s-21.62-8.68-23.77-16.91-9.44-36.4-9.44-36.4l.05-33.91,1-40.86,1.1-33.45L207,371.36"/>
  <path class="cls-6" d="M327.24,540.78l-7.53,8c.79-4,3.66-20.62-6.65-34.3a37.13,37.13,0,0,0-9-8.43l3.88-7.62a40.25,40.25,0,0,1,11.87,10.74C329.34,522.16,327.79,536.83,327.24,540.78Z"/>
  <path class="cls-8" d="M190.16,405.14s27.22,12.37,61.17.73"/>
  <path class="cls-8" d="M189.06,439.88s27.22,12.37,61.17.73"/>
  <path class="cls-8" d="M187.63,467s29.15,17.31,65.52,1"/>
  <path class="cls-8" d="M194,506.11s40.33,13,68.28-26"/>
  <path class="cls-6" d="M247.57,534.69l-3.51-4c3-1,18.29-6.87,22.26-23.11,2.49-10.18-.7-19.38-2.82-24l5.06-2.34c1.42,2.72,6.91,14,3.18,27.63C266.71,527.32,249.36,534,247.57,534.69Z"/>
  <path class="cls-8" d="M301.71,506.67a81.56,81.56,0,0,0-5.84-30.83"/>
  <path d="M246.27,574.5c-5.72,0-11.58-.24-17.48-.73-25-2.08-48.35-8.3-65.77-17.51-17.12-9-28.1-20.88-31.74-34.19a45.47,45.47,0,0,1,.93-25.68c9.44-28,43.84-36.64,53.83-38.6l1.71-90.26h65.36v77.64a73.41,73.41,0,0,1,24.77,2.36c12.91,3.59,29.66,12.8,36.54,36.21,3.44,1.8,17.5,10,20.85,25.59,2.86,13.29-2.07,27-14.66,40.87C313.46,558.05,304,564,292.6,568,280.1,572.24,263.8,574.5,246.27,574.5Zm-55-203.4-1.69,89.68-1.44.25c-4.38.77-43,8.29-52.52,36.5a41.84,41.84,0,0,0-.88,23.6c3.38,12.34,13.75,23.4,30,32,34.17,18.07,92.21,23.32,126.76,11.46,10.86-3.72,19.78-9.37,26.52-16.77,11.77-12.93,16.42-25.62,13.82-37.72-3.38-15.68-19.46-23.41-19.63-23.49l-.73-.34-.22-.79c-5-17.92-16.54-29.52-34.18-34.47a69.42,69.42,0,0,0-25.45-2.07l-2,.29V371.1Z"/>
  <path d="M244.8,535c-.94,0-1.89,0-2.85,0-10.82-.29-28.91-.78-41.19-13.79-9.45-10-11.48-22.95-13.63-36.64A113.86,113.86,0,0,1,186,459.16l3.56.24A110.37,110.37,0,0,0,190.65,484c2.06,13.13,4,25.53,12.7,34.74,11.27,11.93,27.77,12.38,38.69,12.67,21.47.59,39-5.61,52.18-18.41a65.7,65.7,0,0,0,17-28.5l3.42,1a69.42,69.42,0,0,1-17.92,30C283.45,528.46,266,535,244.8,535Z"/>
  <path d="M275.64,485.46A37.59,37.59,0,0,1,259.92,482c-13.88-6.41-10.51-33.9-10.36-35.06l3.54.45c0,.26-3.2,26.05,8.31,31.38,6.25,2.88,16.11,4.7,25,1.16,6.94-2.76,12.06-8.17,15.24-16.09l3.31,1.32c-3.51,8.74-9.47,15-17.23,18.08A33,33,0,0,1,275.64,485.46Z"/>
  <path class="cls-9" d="M146.11,478.57c-1.66,6.39-7.45,31.64,7,52,7.32,10.3,16.56,14.77,26.43,19.4,48,22.48,95.12,6,101.61,3.63,3.5-1.28,30.26-11.36,37.82-27.4a79.73,79.73,0,0,0,4.85-13.58s.79-3.23,2.67-16.86h0s12.44,21.12,3.07,38.93-33.11,29.9-33.11,29.9l-42.1,8-37.84-2-30.11-6.69-28.5-12.64L135.78,530.4l-3.55-26.72S139.7,480.11,146.11,478.57Z"/>
  <path class="cls-1" d="M219.93,257.33c49.25,0,78,58,68.74,89.26-11.29,38-53.35,39-68.39,39-13.69,0-57.1-1-68.39-39C142.6,315.34,170.68,257.33,219.93,257.33Z"/>
  <path class="cls-2" d="M155.48,303.39s-8.34,24,2.93,44c6.6,11.71,21,24,33.72,21.45,15.38-3.12,16.19-25.71,28.91-26.71,14.09-1.11,20.41,26,36.53,25.2,9.46-.48,16.61-10.33,21.58-17a56.51,56.51,0,0,0,10.33-25.2,52.77,52.77,0,0,1-2.54,21c-6.28,18.57-21.34,27.65-26.47,30.64-13.78,8-26.84,8.53-33.58,8.76s-54.56,1-71.12-33.16C145.83,331.83,152.84,310.38,155.48,303.39Z"/>
  <path d="M229.45,387.92h.15c32.92-1.88,54.19-15.91,61.53-40.59,5.29-17.81-1-43-15.64-62.62-14.4-19.3-34.13-29.93-55.56-29.93-21.23,0-40.74,10.47-54.93,29.49-14.67,19.68-20.93,45-15.57,63.07,6.32,21.24,23.54,34.81,49.8,39.23a2.57,2.57,0,1,0,.85-5.06c-24.54-4.13-39.93-16.12-45.73-35.64-4.85-16.31,1.22-40.38,14.77-58.53,13.19-17.69,31.24-27.43,50.81-27.43,19.77,0,38,9.89,51.45,27.87s19.61,42,14.83,58.09c-6.76,22.74-25.9,35.16-56.9,36.93a2.57,2.57,0,0,0,.14,5.13Z"/>
  <path d="M223.42,366.11c8.82,0,12.1-8.11,12.6-12.4a2.56,2.56,0,0,0-5.09-.61c-.11.81-1.18,7.88-7.51,7.88-6.69,0-8.39-8-8.4-8.08a2.57,2.57,0,1,0-5,1C210.84,358.13,214.75,366.11,223.42,366.11Z"/>
  <ellipse class="cls-10" cx="253.15" cy="308.26" rx="11.33" ry="14.87"/>
  <ellipse class="cls-10" cx="187.4" cy="308.99" rx="11.33" ry="14.87"/>
  <ellipse class="cls-6" cx="250.25" cy="303.03" rx="2.15" ry="4.38"/>
  <ellipse class="cls-6" cx="181.82" cy="303.88" rx="2.15" ry="4.38"/>
  <path d="M220.58,387.82c4.64,0,7.93-.16,8.28-.17a2.39,2.39,0,1,0-.23-4.78c-.23,0-23.37,1.08-35.17-2.59a2.39,2.39,0,0,0-1.42,4.57C200.07,387.35,212.42,387.82,220.58,387.82Z"/>
  <path class="cls-11" d="M266.54,454.2h0l-27.86,27.86-.07,0a2.55,2.55,0,0,1-1.19-.94,2.48,2.48,0,0,1-.41-1.57h0L264.57,452h0a2.37,2.37,0,0,1,1.94,2.23Z"/>
  <path class="cls-11" d="M313.46,480.16a11,11,0,0,0-9.53,5.56h-9.78a72.39,72.39,0,0,0-17.43-42.07l6.92-6.92a11.11,11.11,0,0,0,2.92.4,11,11,0,1,0-11-11,11.11,11.11,0,0,0,.4,2.92L269.08,436A72.45,72.45,0,0,0,227,418.58v-9.79a11,11,0,1,0-10.81,0v9.79A72.51,72.51,0,0,0,174.14,436l-6.93-6.93a10.67,10.67,0,0,0,.41-2.92,11,11,0,1,0-11,11,11.17,11.17,0,0,0,2.92-.4l6.92,6.92a72.35,72.35,0,0,0-17.43,42.07h-9.79a11,11,0,1,0-1.78,13.15,11.3,11.3,0,0,0,1.78-2.34h9.79a72.38,72.38,0,0,0,17.43,42.06l-6.92,6.93a10.77,10.77,0,0,0-2.92-.4,11,11,0,1,0,11,11,10.65,10.65,0,0,0-.41-2.91l6.93-6.93a72.45,72.45,0,0,0,42.06,17.43v9.79a11,11,0,1,0,10.81,0v-9.79a72.45,72.45,0,0,0,42.07-17.43l6.92,6.93a11,11,0,0,0,18.3,10.66,11,11,0,0,0-7.74-18.7,10.71,10.71,0,0,0-2.92.4l-6.92-6.93a72.38,72.38,0,0,0,17.43-42.06h9.78a11,11,0,1,0,9.53-16.37ZM135.4,496.76a8,8,0,1,1,2.33-5.64A7.95,7.95,0,0,1,135.4,496.76Zm13.51-3.22h-8.48a10.6,10.6,0,0,0,0-4.84h8.48c0,.8,0,1.61,0,2.42S148.89,492.75,148.91,493.54Zm132-73a8,8,0,1,1,8.65,13,8.17,8.17,0,0,1-3,.58,8,8,0,0,1-5.65-13.62ZM277.29,432a10.8,10.8,0,0,0,3.43,3.43l-6,6q-1.67-1.77-3.43-3.43ZM216,404.91a8,8,0,1,1,5.64,2.34A7.93,7.93,0,0,1,216,404.91Zm8.06,5v8.48c-.8,0-1.61,0-2.42,0s-1.62,0-2.43,0V410a11,11,0,0,0,4.85,0Zm-67.37,24.2a8,8,0,1,1,5.64-2.34A7.93,7.93,0,0,1,156.66,434.15Zm5.83,1.29a11.06,11.06,0,0,0,1.92-1.52,10.93,10.93,0,0,0,1.51-1.91l6,6q-1.77,1.67-3.43,3.43Zm-.19,126.27a8,8,0,1,1,2.34-5.64A8,8,0,0,1,162.3,561.71Zm3.62-11.48a11.31,11.31,0,0,0-1.51-1.91,11,11,0,0,0-1.92-1.51l6-6q1.66,1.77,3.43,3.43Zm61.33,27.1a8,8,0,1,1-5.64-2.33A7.92,7.92,0,0,1,227.25,577.33Zm-8.07-5v-8.48c.81,0,1.62.05,2.43.05s1.62,0,2.42-.05v8.48a11,11,0,0,0-4.85,0Zm67.38-24.2a8,8,0,0,1,0,16,8,8,0,1,1,0-16Zm-5.84-1.28a10.54,10.54,0,0,0-1.91,1.52,10.93,10.93,0,0,0-1.52,1.9l-6-6q1.77-1.66,3.43-3.43Zm-9.78-6.35a69.78,69.78,0,1,1,20.43-49.34A69.59,69.59,0,0,1,270.94,540.46Zm31.84-46.92H294.3c0-.79.05-1.61.05-2.42s0-1.62-.05-2.42h8.48a10.75,10.75,0,0,0-.28,2.42A10.62,10.62,0,0,0,302.78,493.54Zm16.32,3.22a8,8,0,1,1,2.34-5.64A7.93,7.93,0,0,1,319.1,496.76Z"/>
  <path class="cls-12" d="M321.44,491.12a8,8,0,1,1-2.34-5.64A7.93,7.93,0,0,1,321.44,491.12Z"/>
  <path class="cls-12" d="M302.5,491.12a10.62,10.62,0,0,0,.28,2.42H294.3c0-.79.05-1.61.05-2.42s0-1.62-.05-2.42h8.48A10.75,10.75,0,0,0,302.5,491.12Z"/>
  <path class="cls-12" d="M280.72,546.81a10.54,10.54,0,0,0-1.91,1.52,10.93,10.93,0,0,0-1.52,1.9l-6-6q1.77-1.66,3.43-3.43Z"/>
  <path class="cls-12" d="M294.54,556.08a8,8,0,0,1-8,8,8,8,0,1,1,0-16,8,8,0,0,1,8,8Z"/>
  <path class="cls-12" d="M224,563.81v8.48a11,11,0,0,0-4.85,0v-8.48c.81,0,1.62.05,2.43.05S223.23,563.84,224,563.81Z"/>
  <path class="cls-12" d="M229.58,583a8,8,0,1,1-2.33-5.64A7.9,7.9,0,0,1,229.58,583Z"/>
  <path class="cls-12" d="M171.92,544.24l-6,6a11.31,11.31,0,0,0-1.51-1.91,11,11,0,0,0-1.92-1.51l6-6Q170.15,542.58,171.92,544.24Z"/>
  <path class="cls-12" d="M164.64,556.07a8,8,0,1,1-2.34-5.64A7.93,7.93,0,0,1,164.64,556.07Z"/>
  <path class="cls-12" d="M148.87,491.12c0,.81,0,1.63,0,2.42h-8.48a10.6,10.6,0,0,0,0-4.84h8.48C148.89,489.5,148.87,490.31,148.87,491.12Z"/>
  <path class="cls-12" d="M137.73,491.12a8,8,0,1,1-2.33-5.64A8,8,0,0,1,137.73,491.12Z"/>
  <path class="cls-12" d="M171.92,438q-1.77,1.67-3.43,3.43l-6-6a11.06,11.06,0,0,0,1.92-1.52,10.93,10.93,0,0,0,1.51-1.91Z"/>
  <path class="cls-12" d="M164.64,426.16a8,8,0,1,1-2.34-5.63A8,8,0,0,1,164.64,426.16Z"/>
  <path class="cls-12" d="M224,410v8.48c-.8,0-1.61,0-2.42,0s-1.62,0-2.43,0V410a11,11,0,0,0,4.85,0Z"/>
  <path class="cls-12" d="M229.58,399.27a8,8,0,1,1-2.33-5.64A7.92,7.92,0,0,1,229.58,399.27Z"/>
  <path class="cls-12" d="M280.72,435.44l-6,6q-1.67-1.77-3.43-3.43l6-6a10.8,10.8,0,0,0,3.43,3.43Z"/>
  <path class="cls-12" d="M294.54,426.17a8,8,0,0,1-5,7.4,8.17,8.17,0,0,1-3,.58,8,8,0,1,1,8-8Z"/>
  <path class="cls-12" d="M270.94,441.79a69.78,69.78,0,1,0,20.43,49.33A69.52,69.52,0,0,0,270.94,441.79ZM221.61,552.26a61.14,61.14,0,1,1,61.13-61.14A61.14,61.14,0,0,1,221.61,552.26Z"/>
  <path class="cls-11" d="M221.61,430a61.14,61.14,0,1,0,61.13,61.14A61.14,61.14,0,0,0,221.61,430Zm41.12,20c.57.57,1.13,1.16,1.68,1.75.06.07.13.14.19.22.61.66,1.2,1.34,1.77,2,.06.06.11.13.17.2a57.8,57.8,0,0,1,13,31.52h-39.4a19.63,19.63,0,0,0-1.5-3.67,1.14,1.14,0,0,0-.1-.19,19.18,19.18,0,0,0-1.5-2.32l-.17-.22a18.88,18.88,0,0,0-3.43-3.43L261,448.32C261.57,448.87,262.16,449.42,262.73,450ZM237.9,491.12a16.29,16.29,0,1,1-4.77-11.52A16.23,16.23,0,0,1,237.9,491.12ZM227,433.21a58,58,0,0,1,31.73,13.14l-27.87,27.87a19.86,19.86,0,0,0-3.86-1.6Zm-7.83-.19q1.22-.06,2.43-.06c.81,0,1.62,0,2.42.06v39a17.57,17.57,0,0,0-2.42-.16,17.82,17.82,0,0,0-2.43.16Zm-3,.19v39.41a20.13,20.13,0,0,0-3.86,1.6l-27.86-27.87A57.94,57.94,0,0,1,216.2,433.21ZM180.48,450c.57-.58,1.16-1.13,1.75-1.68l27.58,27.57a18.88,18.88,0,0,0-3.43,3.43L178.8,451.75C179.35,451.16,179.91,450.57,180.48,450Zm-3.64,4,27.86,27.86a19.47,19.47,0,0,0-1.59,3.86H163.7A57.79,57.79,0,0,1,176.84,454Zm-13.39,37.12c0-.81,0-1.62.05-2.42h39a18.38,18.38,0,0,0,0,4.84h-39C163.47,492.75,163.45,491.93,163.45,491.12Zm13.39,37.13a57.87,57.87,0,0,1-13.14-31.72h39.41a19.14,19.14,0,0,0,1.59,3.85Zm3.64,4c-.57-.58-1.13-1.16-1.67-1.75l27.57-27.58a19.26,19.26,0,0,0,3.43,3.44l-27.58,27.56C181.64,533.37,181.05,532.82,180.48,532.25ZM216.2,549a57.94,57.94,0,0,1-31.72-13.14L212.34,508a19.47,19.47,0,0,0,3.86,1.59Zm7.83.2c-.8,0-1.61,0-2.42,0s-1.62,0-2.43,0v-39a19.57,19.57,0,0,0,2.43.16,19.29,19.29,0,0,0,2.42-.16Zm3-.2V509.62a19.23,19.23,0,0,0,3.86-1.59l27.87,27.86A58,58,0,0,1,227,549Zm35.72-16.78c-.57.57-1.16,1.12-1.75,1.67l-27.57-27.56a19.59,19.59,0,0,0,3.43-3.44l27.57,27.58C263.86,531.09,263.3,531.67,262.73,532.25Zm3.64-4-27.86-27.86a19.18,19.18,0,0,0,1.6-3.85h39.4A57.73,57.73,0,0,1,266.37,528.24Zm-25.64-34.7a19.6,19.6,0,0,0,0-4.84h39c0,.8.05,1.61.05,2.42s0,1.63-.05,2.42Z"/>
  <path class="cls-12" d="M264.6,452h0L237,479.53h0l-.17-.22a18.88,18.88,0,0,0-3.43-3.43L261,448.32c.59.55,1.18,1.1,1.75,1.68s1.13,1.16,1.68,1.75C264.47,451.82,264.54,451.89,264.6,452Z"/>
  <path class="cls-12" d="M279.76,491.12c0,.81,0,1.63-.05,2.42h-39a19.6,19.6,0,0,0,0-4.84h39C279.74,489.5,279.76,490.31,279.76,491.12Z"/>
  <path class="cls-12" d="M233.13,479.6a16.3,16.3,0,1,0,4.77,11.52A16.25,16.25,0,0,0,233.13,479.6Zm-11.52,23a11.49,11.49,0,1,1,11.49-11.49A11.48,11.48,0,0,1,221.61,502.61Z"/>
  <path class="cls-12" d="M264.41,530.5c-.55.59-1.11,1.17-1.68,1.75s-1.16,1.12-1.75,1.67l-27.57-27.56a19.59,19.59,0,0,0,3.43-3.44Z"/>
  <path class="cls-12" d="M224,510.24v39c-.8,0-1.61,0-2.42,0s-1.62,0-2.43,0v-39a19.57,19.57,0,0,0,2.43.16A19.29,19.29,0,0,0,224,510.24Z"/>
  <path class="cls-12" d="M202.33,491.12a19.29,19.29,0,0,0,.16,2.42h-39c0-.79-.05-1.61-.05-2.42s0-1.62.05-2.42h39A19.41,19.41,0,0,0,202.33,491.12Z"/>
  <path class="cls-12" d="M209.81,506.36l-27.58,27.56c-.59-.55-1.18-1.1-1.75-1.67s-1.13-1.16-1.67-1.75l27.57-27.58A19.26,19.26,0,0,0,209.81,506.36Z"/>
  <path class="cls-12" d="M224,433v39a19.29,19.29,0,0,0-2.42-.16,19.57,19.57,0,0,0-2.43.16V433q1.22-.06,2.43-.06C222.42,433,223.23,433,224,433Z"/>
  <path class="cls-12" d="M209.81,475.89a19.54,19.54,0,0,0-3.43,3.43L178.8,451.75c.55-.6,1.11-1.18,1.68-1.75s1.16-1.13,1.75-1.68Z"/>
  <path class="cls-11" d="M221.61,479.63a11.49,11.49,0,1,0,11.49,11.49A11.49,11.49,0,0,0,221.61,479.63Zm6,17.51a8.49,8.49,0,1,1,2.5-6A8.46,8.46,0,0,1,227.62,497.14Z"/>
  <path class="cls-13" d="M 132.532 668.47 C 127.626 666.77 117.061 653.091 113.287 647.811 C 113.947 652.62 114.419 659.236 115.072 662.432 C 115.637 664.603 111.959 666.585 107.713 667.338 C 103.56 668.091 98.844 667.338 97.43 663.846 C 94.035 652.999 95.645 614.319 97.241 604.414 C 97.334 603.469 97.334 597.808 104.317 598.091 C 108.277 598.187 113.09 599.697 112.808 604.6 C 112.045 613.195 112.247 621.764 112.341 630.829 C 118.285 624.884 128.19 617.15 131.589 609.224 C 133.475 607.338 147.906 615.169 146.211 618.846 C 141.776 629.037 132.814 635.628 127.908 639.791 C 134.335 646.018 144.982 656.302 145.55 656.676 C 147.721 657.715 136.588 669.883 132.532 668.47 Z" style=""/>
  <path class="cls-13" d="M 193.663 631.865 C 192.813 638.292 187.532 645.168 181.776 641.962 C 176.589 639.13 175.55 624.62 168.948 631.761 C 168.287 642.608 168.948 653.931 170.173 664.782 C 171.304 668.27 154.983 671.101 152.719 665.345 C 150.738 660.25 150.549 622.142 154.42 615.061 C 155.173 613.634 156.776 612.234 160.739 612.419 C 163.953 612.516 169.512 613.459 169.23 617.8 C 169.23 617.8 169.23 618.836 169.133 620.725 C 172.436 617.233 177.06 613.555 181.399 613.941 C 189.228 614.697 194.702 625.452 193.663 631.865 Z" style=""/>
  <path class="cls-13" d="M 238.82 663.592 C 230.86 670.834 216.683 672.519 207.463 664.942 C 199.108 658.019 197.912 645.447 210.884 637.566 C 198.708 626.984 208.974 611.384 224.734 611.305 C 238.181 611.223 246.696 623.088 237.863 634.382 C 247.811 640.748 248.049 655.395 238.82 663.592 Z M 214.626 651.174 C 213.59 660.008 231.1 659.611 232.453 651.256 C 232.928 642.341 215.661 642.262 214.626 651.174 Z M 229.429 624.913 C 230.543 619.818 219.957 620.535 218.525 625.309 C 217.968 627.38 218.925 630.004 221.627 632.314 C 224.334 630.801 228.472 628.416 229.429 624.913 Z" style=""/>
  <path class="cls-13" d="M 294.892 647.903 C 296.873 657.997 291.589 668.187 280.741 670.544 C 272.44 672.33 263.381 669.224 258.665 660.903 C 252.627 650.339 263.949 640.812 268.662 649.867 C 269.983 652.413 274.039 659.508 277.814 656.473 C 279.039 655.527 279.324 653.359 277.057 650.81 C 274.132 647.886 267.434 643.922 264.227 641.187 C 253.191 631.846 254.23 615.904 268.755 611.47 C 276.21 609.206 285.362 610.905 291.871 615.715 C 298.297 620.714 295.084 626.659 293.192 627.98 C 290.642 629.869 287.625 629.679 287.058 628.922 C 286.397 628.077 285.547 626.566 281.398 624.205 C 275.171 620.717 269.701 624.113 277.906 629.49 C 280.641 631.186 284.04 633.167 286.207 634.678 C 288.946 636.678 293.57 640.923 294.892 647.903 Z" style=""/>
  <path d="M 130.669 664.888 C 125.762 663.189 115.198 649.51 111.423 644.226 C 112.083 649.039 112.555 655.651 113.208 658.865 C 113.776 661.036 110.095 663.014 105.849 663.771 C 101.7 664.524 96.984 663.771 95.566 660.279 C 92.17 649.432 93.781 610.752 95.377 600.844 C 95.473 599.902 95.473 594.242 102.454 594.524 C 106.417 594.62 111.227 596.127 110.944 601.033 C 110.191 609.62 110.376 618.204 110.473 627.262 C 116.415 621.317 126.323 613.58 129.718 605.657 C 131.603 603.771 146.04 611.602 144.358 615.279 C 139.923 625.47 130.961 632.061 126.058 636.224 C 132.486 642.448 143.133 652.731 143.697 653.109 C 145.857 654.134 134.725 666.302 130.669 664.888 Z" style=""/>
  <path d="M 191.803 628.283 C 190.953 634.71 185.669 641.588 179.913 638.377 C 174.725 635.55 173.69 621.021 167.083 628.19 C 166.423 639.038 167.083 650.36 168.308 661.207 C 169.444 664.699 153.123 667.531 150.856 661.775 C 148.877 656.679 148.689 618.572 152.555 611.491 C 153.308 610.063 154.916 608.659 158.876 608.849 C 162.089 608.945 167.651 609.888 167.366 614.226 C 167.366 614.226 167.366 615.265 167.274 617.15 C 170.576 613.662 175.196 609.981 179.538 610.366 C 187.383 611.113 192.838 621.871 191.803 628.283 Z" style=""/>
  <path d="M 237.248 660.568 C 229.29 667.813 215.111 669.495 205.892 661.922 C 197.537 654.998 196.341 642.423 209.313 634.546 C 197.137 623.959 207.402 608.363 223.163 608.282 C 236.61 608.203 245.125 620.064 236.292 631.361 C 246.239 637.727 246.479 652.37 237.248 660.568 Z M 213.055 648.153 C 212.019 656.987 229.529 656.59 230.882 648.232 C 231.357 639.32 214.09 639.259 213.055 648.153 Z M 227.858 621.893 C 228.973 616.797 218.385 617.515 216.953 622.289 C 216.396 624.359 217.354 626.984 220.057 629.294 C 222.763 627.78 226.901 625.391 227.858 621.893 Z" style=""/>
  <path d="M 293.031 644.323 C 295.009 654.416 289.728 664.607 278.877 666.963 C 270.576 668.748 261.522 665.641 256.805 657.322 C 250.767 646.757 262.085 637.227 266.802 646.286 C 268.122 648.832 272.179 655.909 275.953 652.888 C 277.181 651.945 277.464 649.774 275.2 647.229 C 272.276 644.304 265.559 640.341 262.367 637.606 C 251.331 628.265 252.369 612.323 266.898 607.889 C 274.35 605.625 283.501 607.324 290.011 612.134 C 296.437 617.133 293.223 623.077 291.332 624.399 C 288.786 626.284 285.765 626.095 285.201 625.341 C 284.541 624.491 283.69 622.985 279.538 620.625 C 273.311 617.133 267.841 620.531 276.05 625.909 C 278.785 627.605 282.18 629.587 284.351 631.097 C 287.086 633.096 291.71 637.342 293.031 644.323 Z" style=""/>
</svg>