<svg id="Layer_4" data-name="Layer 4" xmlns="http://www.w3.org/2000/svg" viewBox="0 0 960 960"><defs><style>.cls-1{fill:#30292b;}.cls-2{fill:#fffafb;}.cls-3,.cls-9{opacity:0.39;}.cls-4,.cls-7,.cls-9{fill:#0c0c0c;}.cls-5{opacity:0.15;}.cls-6{fill:#fff;}.cls-7{opacity:0.44;}.cls-8{fill:none;stroke:#fff;stroke-width:12px;}.cls-11,.cls-8{stroke-miterlimit:10;}.cls-10{fill:#070707;}.cls-11,.cls-13{fill:#c47600;}.cls-11{stroke:#231f20;stroke-width:4px;}.cls-12{fill:#011712;}.cls-14{fill:#848484;}</style></defs><path class="cls-1" d="M319.36,517.92c6.07-1.91,5.53-10.3,3.27-15.49-1.85-4.24-5.86-11.79-9.58-16.12-9.27-10.77-12.18-21.25-10.17-35.71,2.22-16,16.39-29.87,32.47-36.94s33.85-8.46,51-8.7,34.42.55,51.54-2.66c-7.29,17.52-5.5,36.84-2.16,54.48-19.06-2.85-44.37-2.54-63.78,2.11-3.82.92-7.77,2.05-10.81,4.53-5.59,4.55-6.9,9.22-2.25,17.81,3.07,5.68,8.34,13.82,11.16,19.63a39.47,39.47,0,0,1,1.49,31.71c-4.17,10.55-13.84,19.79-25.4,22.89Z"/><path class="cls-2" d="M348.52,412.66a2.71,2.71,0,0,1,1.11-2.39,4.33,4.33,0,0,1,4.95-.46c16.21,11.51,23.79,29.47,20.27,48.07-.28,1.5-2.07,2.73-4,2.75s-3.23-1.19-2.95-2.69c3.17-16.71-3.92-33.52-18.49-43.85A2.12,2.12,0,0,1,348.52,412.66Z"/><path class="cls-1" d="M347.51,555.29c-1.94-12.34-6.95-19.5-11.22-23.78-7.69-7.71-11-8.86-28.26-17.6-7.52-3.8-12.37-10.62-15.59-17.86-1.45-3.25-1.69-10.48-1.66-14.15.05-7.34,6-14.49,13-15.51,3.65-.53,7.27.44,10.94.2s10.49-2.73,9.89-6.45c-2.36-14.7-37.35-13.06-51.43,1.22S255.44,498.94,262,517.25s21.79,31.7,39.11,38.66c7.19,2.89,28.05,6.31,36.13,1.94Z"/><g class="cls-3"><path class="cls-4" d="M381.34,406.4c-2.93.23-37.2,3.34-53.81,28.78-1.73,2.65-14.44,22.13-7.33,35.86,3.18,6.13,8.23,7.13,11.63,16.31a25.91,25.91,0,0,1,.52,17.83c-2,5.93-7.64,11.42-14.18,12,2-7.5.28-17.44-2.91-24.12s-7.95-12.49-12.69-18.25c-.85-4.51-4-24.28,9.72-42.88C326.84,412.24,354.43,401.86,381.34,406.4Z"/></g><path class="cls-2" d="M302.8,452.78a.69.69,0,0,1,.06-.35c.52-2,3.92-3.48,7.6-3.34,20,.79,38.31,6,50.32,14.22a2.54,2.54,0,0,1,1.31,2.25,3.72,3.72,0,0,1-2.71,2.84c-2,.51-3.83-1-4.37-1.48-7.76-6.12-38.75-13.89-47.08-13.47C307.08,453.5,303,453.8,302.8,452.78Z"/><path class="cls-2" d="M320.07,502.06a2.47,2.47,0,0,1,1.13-2.35l2-1.37a75.14,75.14,0,0,1,11.18-6.76c11.36-5.19,25.25-4.28,34.55,2.27a2.15,2.15,0,0,1,.28,3.24,2.71,2.71,0,0,1-3.54.56c-7.92-5.57-19.75-6.34-29.42-1.93A68.87,68.87,0,0,0,326,502l-2,1.39a2.54,2.54,0,0,1-3.46-.4A2,2,0,0,1,320.07,502.06Z"/><path class="cls-2" d="M322.38,513.69a3.18,3.18,0,0,1,3-.44c.74.32,1.49.63,2.25.94A61.12,61.12,0,0,1,339.2,520c9.93,6.93,14.16,19.85,10.51,32.17a3.34,3.34,0,0,1-3.44,2.25,2.14,2.14,0,0,1-1.94-2.81c3.1-10.49-.5-21.49-8.95-27.39a55.8,55.8,0,0,0-10.72-5.32l-2.28-1a2.19,2.19,0,0,1-.87-3.34A3.24,3.24,0,0,1,322.38,513.69Z"/><path d="M300.2,465.24a52.91,52.91,0,0,1,.19-14.72c2.16-15.51,15.53-30.79,34.06-38.95,17-7.48,35.88-8.71,52.11-8.93,3.49-.05,7-.06,10.46-.06,13.37,0,27.2-.05,40.6-2.56l4.15-.78L440.23,403c-7.37,17.72-5,37.74-2,53.21l.65,3.47-3.75-.56c-20.25-3-44.88-2.22-62.75,2.06-3.29.79-7,1.81-9.67,4-4.32,3.53-5.85,6.95-1.54,14.94,1.25,2.3,2.85,5,4.54,7.84,2.44,4.11,5,8.37,6.67,11.86a41,41,0,0,1-25.74,58,2.28,2.28,0,0,1-2.94-1.57,2.55,2.55,0,0,1,2-2.89c10.28-2.76,19.52-11.11,23.55-21.28a37.38,37.38,0,0,0-1.45-30c-1.63-3.34-4.11-7.51-6.51-11.55-1.71-2.89-3.34-5.62-4.62-8-4.87-9-4-15,3-20.7,3.57-2.91,8-4.16,11.95-5.09,17.41-4.17,41-5.17,61.09-2.67-2.53-14.47-4.13-32.18,1.55-48.71-12.6,1.93-25.3,1.95-37.63,2-3.41,0-6.94,0-10.39.06-15.67.22-33.86,1.39-49.92,8.45-16.84,7.41-29,21.13-30.88,34.95s.87,23.81,9.7,34.07c3.94,4.57,8.08,12.45,9.9,16.63,1.66,3.82,2.76,9.86.37,14.31a9,9,0,0,1-5.38,4.42,2.33,2.33,0,0,1-3-1.43,2.53,2.53,0,0,1,1.84-3,3.48,3.48,0,0,0,2.13-1.78c1.43-2.67.78-7.29-.6-10.47-1.73-4-5.61-11.37-9.25-15.6C304.86,480.69,301.35,473.49,300.2,465.24Z"/><path class="cls-2" d="M267,531.17a2.17,2.17,0,0,1,0-.8,2.78,2.78,0,0,1,3-2c6.46.74,15.35-.25,20.65-4.17,4.34-3.2,8.78-9,7.05-14.9a2.53,2.53,0,0,1,1.79-3,2.31,2.31,0,0,1,3.06,1.38c2.41,8.12-3.35,15.88-9,20.05-7,5.17-17.64,6.06-24.62,5.25A2.13,2.13,0,0,1,267,531.17Z"/><path class="cls-2" d="M298.05,553.21a2.06,2.06,0,0,1-.45-.63,2.44,2.44,0,0,1,1.38-3.14c6.13-2.82,13.32-8.28,15.59-14.09,1.84-4.75,2.18-11.58-2.93-15.22a2.17,2.17,0,0,1-.27-3.25,2.72,2.72,0,0,1,3.54-.55c7.08,5,6.77,14,4.36,20.23-3,7.67-11.78,14-18.4,17A2.55,2.55,0,0,1,298.05,553.21Z"/><path class="cls-2" d="M256.46,489.68a2.55,2.55,0,0,1,1.61-2.6,2.4,2.4,0,0,1,3.23,1.08c1.91,4.5,7.88,8.25,13.61,8.53a15.77,15.77,0,0,0,13.62-6.36,2.75,2.75,0,0,1,3.52-.74,2.14,2.14,0,0,1,.48,3.21,21.29,21.29,0,0,1-18.34,8.54c-7.5-.36-15.06-5.15-17.59-11.15A2.13,2.13,0,0,1,256.46,489.68Z"/><path class="cls-2" d="M301.11,461.6a9.36,9.36,0,0,1-.1-1.41c0-2.95,1.28-5.83,2.3-8.15a2.8,2.8,0,0,1,3.3-1.51,2.09,2.09,0,0,1,1.32,2.92c-.89,2-1.9,4.31-1.9,6.3a4.56,4.56,0,0,0,2.05,4.13,2.11,2.11,0,0,1,.8,3.12,2.77,2.77,0,0,1-3.45,1.05A8.31,8.31,0,0,1,301.11,461.6Z"/><path d="M256.26,504.66c-2.16-15.56,1-32.94,15.3-45,13.32-11.23,32.32-13.78,44.2-10.49,6.43,1.78,10.33,5.15,11,9.48a6.71,6.71,0,0,1-1.84,5.63c-2.54,2.85-7.1,4.38-10.27,4.59a35.43,35.43,0,0,1-5.29-.16,24.16,24.16,0,0,0-5.43-.06c-5.62.83-10.58,6.9-10.62,13,0,4.53.33,10.73,1.48,13.3.87,2,5.24,13.8,17.45,18.66,4.83,1.92,10.33,2.54,10.16,4.28-.11,1.14-2.61,2-2.9,2.09-8.52,2.91-23.78-8.48-29.38-22.92-1.42-3.65-1.88-8.58-1.83-15,.05-8.55,7.07-16.8,15.32-18a28.48,28.48,0,0,1,6.66,0,29.9,29.9,0,0,0,4.49.15c2.05-.13,5.08-1.2,6.42-2.7a2.09,2.09,0,0,0,.61-1.81c-.39-2.58-3.25-4.79-7.84-6.07-10.27-2.84-27.49-.53-39.19,9.33-16.66,14.05-16.29,36.76-10.38,53.33s19.67,30.1,37.89,37.41c6.66,2.68,20.49,4.17,28.41,3.71,3.61-.2,12.72-2.36,16.06-4.29a2.49,2.49,0,0,1,3.39.66,2.38,2.38,0,0,1-1,3.23c-4.36,2.53-14.28,4.81-18.58,5.05-8.48.49-23.13-1.06-30.6-4.05-19.36-7.78-34.06-22.32-40.32-39.89A68.45,68.45,0,0,1,256.26,504.66Z"/><path class="cls-2" d="M273.82,460.16a2.6,2.6,0,0,1,2-2.74,2.3,2.3,0,0,1,2.95,1.57c.74,3.42,1.58,7.28,3.88,9.93,1.93,2.21,5.65,3.86,8.74,2.59a2.39,2.39,0,0,1,3.2,1.13,2.48,2.48,0,0,1-1.53,3.1c-5.66,2.33-11.44-.28-14.42-3.69s-3.95-7.84-4.8-11.74Z"/><g class="cls-5"><path class="cls-6" d="M279.85,518c3.37,7.9,9.3,15,17.67,18.37,3.05,1.25,7.67,1.46,9.24-1.52a5.2,5.2,0,0,0,.48-2.73c-.31-5.84-5-10.2-9.24-14.19-4.5-4.21-8.87-8.62-11.95-13.87a27.44,27.44,0,0,1-3.95-15.68c.23-3.73.25-12.26-5.29-5.6C270.29,490.59,276.67,510.51,279.85,518Z"/></g><path class="cls-1" d="M468.1,257h88.4V368.28s70-10,88.06,54.08c0,0,24.31,11.44,29.46,35.35,5.79,26.9-13.73,48.88-20.36,56.17-8.43,9.26-20.66,18.39-39,24.68-68.66,23.56-209.31,2-227.35-63.85-4.55-16.6,0-31.34,1.29-35.23,14.21-42.07,70.77-52.77,77.06-53.87Q466.9,321.31,468.1,257Z"/><g class="cls-5"><path class="cls-6" d="M429.09,460.65c3.36,7.91,9.29,15,17.66,18.38,3.05,1.24,7.67,1.45,9.25-1.53a5.18,5.18,0,0,0,.47-2.73c-.3-5.84-5-10.2-9.23-14.18-4.5-4.21-8.87-8.63-11.95-13.87a27.46,27.46,0,0,1-4-15.68c.23-3.74.24-12.27-5.29-5.61C419.52,433.27,425.91,453.19,429.09,460.65Z"/></g><path class="cls-6" d="M625.17,539.26l-8.42,3.61c2.34-17.11-.72-31.67-9.1-43.29a43.58,43.58,0,0,0-13.45-12.49l3.63-7.1a58,58,0,0,1,16,14.55C627.41,512.64,625.85,533.24,625.17,539.26Z"/><path class="cls-6" d="M529.29,551.91l-9.6-1.17c24.93-30,9.25-55.78,8.57-56.86l6.57-1.17a19.33,19.33,0,0,1,2.95,2.6c7.27,7.87,5.91,19.69,5.2,25.91C541.29,535.94,533.75,546.59,529.29,551.91Z"/><path class="cls-6" d="M449.38,533.94l-5.89-5a55,55,0,0,0,30.06-25.25,54.19,54.19,0,0,0,5.86-34.49l9,5.6a60.65,60.65,0,0,1-7.83,32.71A61.48,61.48,0,0,1,449.38,533.94Z"/><path class="cls-6" d="M400.33,494.17l-10.73-5.48c1.58-4.58,10.15-27.84,35.44-40.22,22.93-11.23,44.26-6,49.54-4.54l-3.21,11.8c-6.42-1.74-23.27-4.87-41,3.74C409.75,469.5,402.16,488.56,400.33,494.17Z"/><path class="cls-6" d="M399.05,430.64l-5.2-3.74A56.5,56.5,0,0,1,467.69,412L464,419.05a59.06,59.06,0,0,0-34.4-5.95C411.06,415.75,401.53,427.2,399.05,430.64Z"/><path class="cls-7" d="M492.71,262.24c-2.28,22-11.47,115.81,0,172.69,1.91,9.46,5.45,23.12,16.9,33.14,20.07,17.56,50.08,11.42,54.86,10.44,19.79-4,32.45-14.94,43.16-24.22a141.39,141.39,0,0,0,33.22-42.51l3.9,14.15-21.52,36.42-36.92,26.26L557,493.54,514,490.41s-30.9-12.41-34-24.18-13.48-52-13.48-52l.07-48.48,1.38-58.4,1.57-47.82,24,2.92"/><path class="cls-6" d="M665.55,504.62l-10.77,11.46c1.13-5.66,5.23-29.48-9.51-49A53,53,0,0,0,632.44,455L638,444.1a57.71,57.71,0,0,1,17,15.36C668.55,478,666.33,499,665.55,504.62Z"/><path class="cls-8" d="M469.57,310.71s38.92,17.68,87.45,1"/><path class="cls-8" d="M468,360.38s38.92,17.68,87.45,1"/><path class="cls-8" d="M466,399.16s41.68,24.76,93.67,1.46"/><path class="cls-8" d="M475,455.05s57.65,18.53,97.6-37.12"/><path class="cls-6" d="M551.65,495.91l-5-5.7c4.32-1.45,26.14-9.82,31.82-33,3.56-14.55-1-27.7-4-34.25l7.23-3.35c2,3.88,9.88,20,4.55,39.49C579,485.37,554.2,495,551.65,495.91Z"/><path class="cls-8" d="M629,455.86a116.5,116.5,0,0,0-8.34-44.08"/><path d="M549.79,552.82c-8.19,0-16.56-.34-25-1-35.73-3-69.12-11.86-94-25-24.47-13-40.17-29.85-45.38-48.88-4.47-16.33-.55-31.12,1.34-36.72,13.49-40,62.67-52.38,77-55.18l2.43-129h93.45v111A104.59,104.59,0,0,1,595,371.3c18.46,5.14,42.41,18.3,52.24,51.77,4.92,2.58,25,14.35,29.82,36.59,4.08,19-3,38.65-21,58.42-10.22,11.23-23.69,19.76-40,25.37C598.15,549.59,574.85,552.82,549.79,552.82ZM471.12,262,468.7,390.25l-2.07.36c-6.25,1.09-61.46,11.84-75.08,52.17-1.74,5.16-5.34,18.77-1.24,33.74,4.83,17.64,19.65,33.45,42.85,45.72C482,548.07,565,555.58,614.37,538.63c15.53-5.32,28.28-13.39,37.92-24C669.12,496.16,675.77,478,672,460.73c-4.82-22.41-27.82-33.47-28-33.58l-1-.49-.32-1.12c-7.2-25.63-23.64-42.21-48.85-49.28a98.94,98.94,0,0,0-36.39-3l-2.91.41V262Z"/><path d="M547.69,496.35q-2,0-4.08-.06c-15.46-.41-41.33-1.12-58.88-19.71-13.52-14.32-16.42-32.8-19.49-52.38a162.88,162.88,0,0,1-1.59-36.27l5.09.34a158.17,158.17,0,0,0,1.53,35.14c3,18.77,5.73,36.5,18.16,49.67,16.1,17.06,39.7,17.7,55.31,18.12,30.7.84,55.81-8,74.6-26.32a94,94,0,0,0,24.29-40.76l4.89,1.45a99.26,99.26,0,0,1-25.63,43C602.93,487,578,496.35,547.69,496.35Z"/><path d="M591.78,425.53a53.84,53.84,0,0,1-22.48-5c-19.84-9.17-15-48.46-14.81-50.13l5.06.65c0,.37-4.58,37.25,11.89,44.86,8.93,4.12,23,6.73,35.79,1.65,9.91-3.94,17.24-11.67,21.79-23l4.73,1.9c-5,12.49-13.53,21.43-24.64,25.84A47,47,0,0,1,591.78,425.53Z"/><path class="cls-9" d="M406.59,415.68c-2.37,9.14-10.64,45.23,10,74.34,10.46,14.72,23.68,21.12,37.79,27.73,68.57,32.14,136,8.6,145.25,5.2,5-1.84,43.26-16.25,54.08-39.17a114.09,114.09,0,0,0,6.93-19.42s1.12-4.62,3.81-24.1h0s17.79,30.19,4.39,55.65-47.33,42.75-47.33,42.75l-60.19,11.4-54.09-2.82-43.06-9.56-40.74-18.06-31.62-29.84-5.08-38.2S397.43,417.89,406.59,415.68Z"/><path class="cls-1" d="M512.13,99.4c70.4,0,111.56,82.93,98.27,127.61-16.13,54.27-76.27,55.74-97.77,55.74-19.57,0-81.63-1.47-97.77-55.74C401.58,182.33,441.72,99.4,512.13,99.4Z"/><path class="cls-2" d="M420,165.24s-11.94,34.27,4.18,62.87c9.43,16.75,30.07,34.35,48.2,30.67,22-4.46,23.16-36.76,41.34-38.19,20.13-1.57,29.18,37.2,52.22,36,13.53-.69,23.75-14.76,30.85-24.36a80.73,80.73,0,0,0,14.77-36,75.44,75.44,0,0,1-3.63,30.07c-9,26.55-30.51,39.53-37.84,43.8-19.7,11.47-38.37,12.2-48,12.52s-78,1.46-101.67-47.39C406.2,205.9,416.22,175.24,420,165.24Z"/><path d="M525.74,286.08H526c47.06-2.69,77.48-22.75,88-58,7.57-25.47-1.42-61.45-22.36-89.53-20.59-27.59-48.8-42.79-79.43-42.79-30.35,0-58.24,15-78.52,42.17-21,28.13-29.93,64.36-22.26,90.15,9,30.38,33.65,49.77,71.19,56.09a3.67,3.67,0,0,0,1.22-7.23c-35.09-5.91-57.09-23.05-65.38-51-6.93-23.31,1.75-57.72,21.11-83.68,18.86-25.29,44.66-39.22,72.64-39.22,28.26,0,54.38,14.15,73.55,39.85,19.32,25.9,28,60.06,21.21,83.05-9.67,32.5-37,50.26-81.36,52.79a3.67,3.67,0,0,0,.21,7.33Z"/><path d="M517.12,254.91c12.6,0,17.3-11.6,18-17.73a3.67,3.67,0,0,0-7.29-.87c-.14,1.16-1.68,11.26-10.73,11.26-9.56,0-12-11.43-12-11.55a3.67,3.67,0,1,0-7.19,1.45C499.14,243.5,504.72,254.91,517.12,254.91Z"/><ellipse class="cls-10" cx="559.63" cy="172.21" rx="16.19" ry="21.25"/><ellipse class="cls-10" cx="465.63" cy="173.24" rx="16.19" ry="21.25"/><ellipse class="cls-6" cx="555.47" cy="164.73" rx="3.07" ry="6.26"/><ellipse class="cls-6" cx="457.65" cy="165.94" rx="3.07" ry="6.26"/><path d="M513.05,285.94c6.64,0,11.34-.22,11.85-.24a3.42,3.42,0,0,0-.33-6.84c-.33,0-33.41,1.54-50.28-3.69a3.42,3.42,0,0,0-2,6.53C483.74,285.27,501.39,285.94,513.05,285.94Z"/><path class="cls-11" d="M509.09,457.32c0,3.14-33.59,140.92-33.59,140.92h74.28L519.69,455.86Z"/><path class="cls-12" d="M578.76,380.84v0l-39.82,39.83-.1,0a3.56,3.56,0,0,1-2.3-3.58h0L576,377.64h0a3.64,3.64,0,0,1,2.1,1.3A3.4,3.4,0,0,1,578.76,380.84Z"/><path class="cls-12" d="M645.84,418a15.67,15.67,0,0,0-13.62,8h-14a103.49,103.49,0,0,0-24.91-60.15l9.89-9.9a15.66,15.66,0,1,0-11.49-15.1,16.07,16.07,0,0,0,.57,4.18l-9.89,9.89a103.61,103.61,0,0,0-60.15-24.91v-14a15.67,15.67,0,1,0-15.45,0v14a103.68,103.68,0,0,0-60.14,24.92l-9.89-9.9a16,16,0,0,0,.57-4.18,15.72,15.72,0,1,0-11.49,15.1l9.89,9.91a103.48,103.48,0,0,0-24.91,60.14h-14a15.69,15.69,0,1,0,0,15.44h14a103.51,103.51,0,0,0,24.91,60.14l-9.89,9.9a15.65,15.65,0,1,0,11.49,15.08,15.92,15.92,0,0,0-.57-4.16l9.89-9.9a103.54,103.54,0,0,0,60.14,24.91v14a15.67,15.67,0,1,0,15.45,0v-14a103.54,103.54,0,0,0,60.15-24.91l9.89,9.9a15.92,15.92,0,0,0-.57,4.16,15.68,15.68,0,1,0,11.49-15.08l-9.89-9.9a103.51,103.51,0,0,0,24.91-60.14h14A15.66,15.66,0,1,0,645.84,418ZM391.28,441.69a11.41,11.41,0,1,1,3.34-8.06A11.35,11.35,0,0,1,391.28,441.69Zm19.32-4.6H398.48a15.21,15.21,0,0,0,0-6.93H410.6c0,1.15-.06,2.3-.06,3.46S410.57,436,410.6,437.09ZM599.31,332.7a11.41,11.41,0,1,1,16.14,16.13,11.3,11.3,0,0,1-8.07,3.35,11.42,11.42,0,0,1-8.07-19.48Zm-5.17,16.42a15.49,15.49,0,0,0,2.17,2.73A15.22,15.22,0,0,0,599,354l-8.57,8.57c-1.59-1.69-3.21-3.32-4.9-4.9Zm-87.67-38.75a11.38,11.38,0,1,1,8.06,3.35A11.32,11.32,0,0,1,506.47,310.37ZM518,317.58V329.7c-1.16,0-2.31-.06-3.47-.06s-2.31,0-3.47.06V317.58a15.63,15.63,0,0,0,6.94,0Zm-96.33,34.6a11.42,11.42,0,1,1,8.07-3.35A11.32,11.32,0,0,1,421.67,352.18ZM430,354a15.36,15.36,0,0,0,4.9-4.9l8.57,8.57q-2.52,2.37-4.89,4.9Zm-.28,180.52a11.41,11.41,0,0,1-19.47-8.09,11.41,11.41,0,1,1,19.47,8.09Zm5.18-16.41a15.36,15.36,0,0,0-4.9-4.9l8.58-8.57c1.58,1.68,3.21,3.32,4.89,4.9Zm87.68,38.74a11.41,11.41,0,1,1-8.07-3.34A11.38,11.38,0,0,1,522.6,556.87Zm-11.54-7.2V537.55c1.16,0,2.31.07,3.47.07s2.31,0,3.47-.07v12.12a15.25,15.25,0,0,0-6.94,0Zm96.32-34.6a11.41,11.41,0,0,1,0,22.82,11.41,11.41,0,1,1,0-22.82ZM599,513.23a14.85,14.85,0,0,0-2.73,2.18,15.07,15.07,0,0,0-2.17,2.72l-8.57-8.57c1.69-1.58,3.31-3.22,4.9-4.9Zm-14-9.08a99.73,99.73,0,1,1,29.21-70.53A99.44,99.44,0,0,1,585.05,504.15Zm45.52-67.06H618.46c0-1.14.06-2.31.06-3.47s0-2.31-.06-3.46h12.11a15.91,15.91,0,0,0-.39,3.47A15.75,15.75,0,0,0,630.57,437.09Zm23.34,4.6a11.41,11.41,0,1,1,3.34-8.06A11.35,11.35,0,0,1,653.91,441.69Z"/><path class="cls-13" d="M657.25,433.63a11.4,11.4,0,1,1-3.34-8.07A11.34,11.34,0,0,1,657.25,433.63Z"/><path class="cls-13" d="M630.18,433.63a15.75,15.75,0,0,0,.39,3.46H618.46c0-1.14.06-2.31.06-3.47s0-2.31-.06-3.46h12.11A15.91,15.91,0,0,0,630.18,433.63Z"/><path class="cls-13" d="M599,513.23a14.85,14.85,0,0,0-2.73,2.18,15.07,15.07,0,0,0-2.17,2.72l-8.57-8.57c1.69-1.58,3.31-3.22,4.9-4.9Z"/><path class="cls-13" d="M618.79,526.5a11.42,11.42,0,0,1-11.4,11.39,11.41,11.41,0,1,1,0-22.82,11.42,11.42,0,0,1,11.41,11.43Z"/><path class="cls-13" d="M518,537.55v12.12a15.25,15.25,0,0,0-6.94,0V537.55c1.16,0,2.31.07,3.47.07S516.84,537.58,518,537.55Z"/><path class="cls-13" d="M525.93,564.93a11.39,11.39,0,1,1-3.33-8.06A11.38,11.38,0,0,1,525.93,564.93Z"/><path class="cls-13" d="M443.49,509.56l-8.57,8.57a15.36,15.36,0,0,0-4.9-4.9l8.58-8.57C440.18,506.34,441.81,508,443.49,509.56Z"/><path class="cls-13" d="M433.08,526.47a11.4,11.4,0,1,1-3.34-8.06A11.35,11.35,0,0,1,433.08,526.47Z"/><path class="cls-13" d="M410.54,433.62c0,1.16,0,2.33.06,3.47H398.48a15.21,15.21,0,0,0,0-6.93H410.6C410.57,431.31,410.54,432.46,410.54,433.62Z"/><path class="cls-13" d="M394.62,433.63a11.4,11.4,0,1,1-3.34-8.07A11.34,11.34,0,0,1,394.62,433.63Z"/><path class="cls-13" d="M443.49,357.69q-2.52,2.37-4.89,4.9L430,354a15.36,15.36,0,0,0,4.9-4.9Z"/><path class="cls-13" d="M433.08,340.76a11.39,11.39,0,1,1-3.34-8.06A11.34,11.34,0,0,1,433.08,340.76Z"/><path class="cls-13" d="M518,317.58V329.7c-1.16,0-2.31-.06-3.47-.06s-2.31,0-3.47.06V317.58a15.63,15.63,0,0,0,6.94,0Z"/><path class="cls-13" d="M525.93,302.31a11.39,11.39,0,1,1-3.33-8.07A11.34,11.34,0,0,1,525.93,302.31Z"/><path class="cls-13" d="M599,354l-8.57,8.57c-1.59-1.69-3.21-3.32-4.9-4.9l8.57-8.57a15.49,15.49,0,0,0,2.17,2.73A15.22,15.22,0,0,0,599,354Z"/><path class="cls-13" d="M618.79,340.77a11.33,11.33,0,0,1-3.34,8.06,11.3,11.3,0,0,1-8.07,3.35,11.41,11.41,0,1,1,11.41-11.41Z"/><path class="cls-13" d="M585.05,363.11a99.73,99.73,0,1,0,29.21,70.51A99.38,99.38,0,0,0,585.05,363.11ZM514.53,521a87.41,87.41,0,1,1,87.4-87.41A87.41,87.41,0,0,1,514.53,521Z"/><path class="cls-12" d="M514.53,346.22a87.41,87.41,0,1,0,87.4,87.4A87.41,87.41,0,0,0,514.53,346.22Zm58.79,28.61c.82.82,1.61,1.66,2.4,2.51l.27.31c.87,1,1.72,1.92,2.54,2.9a3.25,3.25,0,0,1,.23.29,82.66,82.66,0,0,1,18.55,45.07H541a27.76,27.76,0,0,0-2.14-5.26c0-.09-.09-.18-.14-.27a26.13,26.13,0,0,0-2.16-3.31l-.24-.32a27.38,27.38,0,0,0-4.9-4.9l39.41-39.42C571.67,373.22,572.5,374,573.32,374.83Zm-35.49,58.8A23.3,23.3,0,1,1,531,417.15,23.19,23.19,0,0,1,537.83,433.63Zm-15.58-82.79a82.79,82.79,0,0,1,45.36,18.78l-39.84,39.85a27.13,27.13,0,0,0-5.52-2.3Zm-11.19-.28c1.16-.05,2.31-.08,3.47-.08s2.31,0,3.47.08V406.3a27.48,27.48,0,0,0-6.94,0Zm-4.26.28v56.33a27.61,27.61,0,0,0-5.52,2.3l-39.83-39.85A82.76,82.76,0,0,1,506.8,350.84Zm-51.06,24c.81-.82,1.65-1.61,2.5-2.4l39.42,39.42a27.38,27.38,0,0,0-4.9,4.9l-39.42-39.41C454.12,376.49,454.92,375.65,455.74,374.83Zm-5.21,5.72,39.83,39.83a28,28,0,0,0-2.28,5.53H431.74A82.7,82.7,0,0,1,450.53,380.55Zm-19.15,53.07c0-1.16,0-2.31.08-3.46H487.2a27.4,27.4,0,0,0,0,6.93H431.46C431.41,436,431.38,434.78,431.38,433.62Zm19.15,53.08a82.77,82.77,0,0,1-18.79-45.35h56.34a27.64,27.64,0,0,0,2.28,5.52Zm5.21,5.72c-.82-.82-1.62-1.65-2.4-2.5l39.42-39.42a28.11,28.11,0,0,0,4.9,4.91l-39.42,39.4C457.39,494,456.55,493.23,455.74,492.42Zm51.06,24a82.7,82.7,0,0,1-45.35-18.79l39.83-39.83a27.54,27.54,0,0,0,5.52,2.28Zm11.2.28c-1.16,0-2.31.08-3.47.08s-2.31,0-3.47-.08V461a26.29,26.29,0,0,0,6.94,0Zm4.25-.28V460.07a27.06,27.06,0,0,0,5.52-2.28l39.84,39.83A82.73,82.73,0,0,1,522.25,516.41Zm51.07-24c-.82.81-1.65,1.61-2.51,2.39l-39.41-39.4a28.46,28.46,0,0,0,4.9-4.91l39.42,39.42C574.93,490.77,574.14,491.6,573.32,492.42Zm5.21-5.72L538.7,446.87a27.64,27.64,0,0,0,2.28-5.52h56.33A82.76,82.76,0,0,1,578.53,486.7Zm-36.67-49.61a26.22,26.22,0,0,0,0-6.93H597.6c0,1.15.07,2.3.07,3.46s0,2.33-.07,3.47Z"/><path class="cls-13" d="M576,377.65h0l-39.41,39.42h0l-.24-.32a27.38,27.38,0,0,0-4.9-4.9l39.41-39.42c.86.79,1.69,1.58,2.51,2.4s1.61,1.66,2.4,2.51Z"/><path class="cls-13" d="M597.67,433.62c0,1.16,0,2.33-.07,3.47H541.86a26.22,26.22,0,0,0,0-6.93H597.6C597.64,431.31,597.67,432.46,597.67,433.62Z"/><path class="cls-13" d="M531,417.15a23.27,23.27,0,1,0,6.83,16.48A23.19,23.19,0,0,0,531,417.15Zm-16.47,32.9A16.43,16.43,0,1,1,531,433.63,16.43,16.43,0,0,1,514.53,450.05Z"/><path class="cls-13" d="M575.72,489.92c-.79.85-1.58,1.68-2.4,2.5s-1.65,1.61-2.51,2.39l-39.41-39.4a28.46,28.46,0,0,0,4.9-4.91Z"/><path class="cls-13" d="M518,461v55.74c-1.16,0-2.31.08-3.47.08s-2.31,0-3.47-.08V461a26.29,26.29,0,0,0,6.94,0Z"/><path class="cls-13" d="M487,433.63a26.46,26.46,0,0,0,.22,3.46H431.46c0-1.14-.08-2.31-.08-3.47s0-2.31.08-3.46H487.2A26.5,26.5,0,0,0,487,433.63Z"/><path class="cls-13" d="M497.66,455.41l-39.42,39.4c-.85-.78-1.69-1.58-2.5-2.39s-1.62-1.65-2.4-2.5l39.42-39.42A28.11,28.11,0,0,0,497.66,455.41Z"/><path class="cls-13" d="M518,350.56V406.3a26.29,26.29,0,0,0-6.94,0V350.56c1.16-.05,2.31-.08,3.47-.08S516.84,350.51,518,350.56Z"/><path class="cls-13" d="M497.66,411.85a27.71,27.71,0,0,0-4.9,4.9l-39.42-39.41c.78-.85,1.58-1.69,2.4-2.5s1.65-1.62,2.5-2.4Z"/><path class="cls-12" d="M514.53,417.2A16.43,16.43,0,1,0,531,433.63,16.44,16.44,0,0,0,514.53,417.2Zm8.6,25a12.14,12.14,0,1,1,3.57-8.6A12.08,12.08,0,0,1,523.13,442.23Z"/><path class="cls-14" d="M278.82,807.07c-17.07-5.91-53.83-53.5-67-71.89,2.3,16.75,3.94,39.72,6.24,50.88,2,7.55-10.83,14.44-25.61,17.07-14.44,2.63-30.85,0-35.77-12.14-11.82-37.75-6.24-172.33-.66-206.79.33-3.28.33-23,24.62-22,13.78.32,30.52,5.58,29.54,22.64-2.63,29.87-2,59.74-1.64,91.25,20.68-20.68,55.14-47.59,67-75.16,6.56-6.57,56.78,20.68,50.87,33.48-15.42,35.45-46.6,58.42-63.67,72.86C285.06,729,322.15,764.73,324.12,766,331.67,769.65,292.93,812,278.82,807.07Z"/><path class="cls-14" d="M491.52,679.71c-3,22.32-21.34,46.28-41.36,35.12-18.05-9.84-21.66-60.39-44.64-35.44-2.3,37.74,0,77.13,4.27,114.88,3.94,12.14-52.85,22-60.73,2-6.89-17.73-7.55-150.34,5.91-175,2.63-4.93,8.21-9.85,22-9.19,11.16.33,30.53,3.61,29.54,18.71,0,0,0,3.61-.32,10.17,11.48-12.14,27.57-24.94,42.67-23.63C476.09,620,495.13,657.39,491.52,679.71Z"/><path class="cls-14" d="M648.62,790.09c-27.69,25.2-77,31-109.09,4.71-29.08-24.09-33.23-67.84,11.9-95.25-42.36-36.83-6.64-91.1,48.18-91.38,46.8-.27,76.43,41,45.69,80.3C679.91,710.62,680.74,761.57,648.62,790.09ZM564.45,746.9c-3.6,30.73,57.32,29.35,62,.27C628.13,716.16,568.05,715.88,564.45,746.9ZM616,655.52c3.88-17.72-33-15.23-37.93,1.39-1.94,7.19,1.38,16.33,10.8,24.36C598.23,676,612.63,667.7,616,655.52Z"/><path class="cls-14" d="M843.72,735.51c6.89,35.12-11.49,70.57-49.24,78.78-28.88,6.24-60.39-4.6-76.8-33.48-21-36.76,18.38-69.91,34.79-38.4,4.59,8.86,18.71,33.48,31.84,23,4.26-3.28,5.25-10.83-2.63-19.69-10.17-10.18-33.48-24-44.64-33.48-38.4-32.5-34.79-88,15.76-103.4,25.93-7.87,57.77-2,80.41,14.78,22.32,17.39,11.16,38.07,4.6,42.67-8.86,6.56-19.37,5.9-21.34,3.28-2.29-3-5.25-8.21-19.69-16.41-21.66-12.15-40.7-.33-12.14,18.38,9.51,5.91,21.33,12.8,28.88,18C823,696.45,839.12,711.22,843.72,735.51Z"/><path d="M272.34,794.61c-17.07-5.91-53.83-53.51-67-71.89,2.3,16.74,3.94,39.72,6.24,50.88,2,7.55-10.83,14.44-25.6,17.07-14.45,2.62-30.86,0-35.78-12.15-11.82-37.74-6.24-172.32-.66-206.79.33-3.28.33-23,24.62-22,13.78.33,30.52,5.58,29.54,22.65-2.63,29.87-2,59.74-1.64,91.25,20.68-20.68,55.14-47.59,67-75.17,6.56-6.56,56.78,20.68,50.88,33.48-15.43,35.45-46.61,58.43-63.68,72.87,22.32,21.67,59.41,57.44,61.38,58.76C325.19,757.19,286.45,799.53,272.34,794.61Z"/><path d="M485,667.25c-3,22.32-21.34,46.28-41.36,35.12C425.63,692.52,422,642,399,666.92c-2.3,37.75,0,77.14,4.27,114.88,3.94,12.15-52.85,22-60.73,2-6.89-17.72-7.55-150.33,5.91-174.94,2.63-4.93,8.21-9.85,22-9.2,11.16.33,30.53,3.62,29.55,18.71,0,0,0,3.61-.33,10.18,11.49-12.15,27.57-24.95,42.67-23.63C469.61,607.51,488.65,644.93,485,667.25Z"/><path d="M643.16,779.58c-27.69,25.2-77,31-109.1,4.71C505,760.2,500.83,716.45,546,689c-42.37-36.82-6.65-91.09,48.18-91.37,46.79-.28,76.42,41,45.69,80.3C674.45,700.11,675.28,751.06,643.16,779.58ZM559,736.38c-3.6,30.74,57.32,29.35,62,.28C622.67,705.65,562.58,705.37,559,736.38ZM610.48,645c3.88-17.72-33-15.23-37.93,1.38-1.94,7.2,1.39,16.34,10.8,24.37C592.76,665.5,607.16,657.19,610.48,645Z"/><path d="M837.24,723.05c6.89,35.12-11.49,70.57-49.24,78.78-28.88,6.23-60.39-4.6-76.8-33.48-21-36.77,18.38-69.92,34.79-38.41,4.59,8.87,18.71,33.48,31.84,23,4.26-3.28,5.25-10.83-2.63-19.69-10.17-10.18-33.48-24-44.64-33.48-38.4-32.5-34.79-88,15.76-103.4,25.93-7.88,57.77-2,80.41,14.77,22.32,17.4,11.16,38.08,4.6,42.67-8.86,6.57-19.37,5.91-21.34,3.29-2.29-3-5.25-8.21-19.69-16.42-21.66-12.14-40.7-.32-12.14,18.38,9.51,5.91,21.33,12.81,28.88,18.06C816.56,684,832.64,698.76,837.24,723.05Z"/></svg>