<svg id="Layer_4" data-name="Layer 4" xmlns="http://www.w3.org/2000/svg" viewBox="0 0 960 960"><defs><style>.cls-1{fill:#30292b;}.cls-2{fill:#fffafb;}.cls-3,.cls-9{opacity:0.39;}.cls-4,.cls-7,.cls-9{fill:#0c0c0c;}.cls-5{opacity:0.15;}.cls-6{fill:#fff;}.cls-7{opacity:0.44;}.cls-8{fill:none;stroke:#fff;stroke-miterlimit:10;stroke-width:12px;}.cls-10{fill:#070707;}.cls-11{fill:#011712;}.cls-12{fill:#c47600;}.cls-13{fill:#848484;}</style></defs><path class="cls-1" d="M324.86,527.85c6.07-1.9,5.53-10.3,3.27-15.49-1.85-4.24-5.85-11.79-9.58-16.12-9.27-10.77-12.18-21.25-10.17-35.7,2.22-16,16.39-29.87,32.47-37s33.85-8.46,51-8.69,34.42.54,51.54-2.67c-7.29,17.52-5.5,36.85-2.16,54.48-19.05-2.85-44.37-2.54-63.78,2.11-3.82.92-7.77,2.05-10.81,4.53-5.59,4.56-6.9,9.22-2.25,17.82,3.07,5.67,8.34,13.82,11.16,19.62a39.47,39.47,0,0,1,1.49,31.71c-4.17,10.55-13.84,19.79-25.4,22.89Z"/><path class="cls-2" d="M354,422.59a2.67,2.67,0,0,1,1.11-2.39,4.31,4.31,0,0,1,4.94-.46c16.21,11.51,23.79,29.47,20.27,48.07-.28,1.5-2.06,2.73-4,2.75s-3.23-1.19-2.95-2.69c3.17-16.71-3.92-33.51-18.49-43.85A2.07,2.07,0,0,1,354,422.59Z"/><path class="cls-1" d="M353,565.22c-1.94-12.34-6.95-19.5-11.22-23.78-7.69-7.71-11-8.86-28.26-17.59C306,520,301.16,513.22,297.94,506c-1.45-3.24-1.69-10.48-1.66-14.15.05-7.34,6-14.49,13-15.51,3.65-.53,7.27.44,10.94.2s10.49-2.72,9.89-6.45c-2.36-14.7-37.34-13.06-51.43,1.22s-17.7,37.58-11.18,55.89,21.79,31.7,39.11,38.66c7.2,2.89,28.05,6.31,36.13,1.95Z"/><g class="cls-3"><path class="cls-4" d="M386.84,416.33c-2.93.23-37.2,3.34-53.81,28.78-1.73,2.65-14.44,22.13-7.32,35.87,3.17,6.13,8.23,7.12,11.62,16.3a25.94,25.94,0,0,1,.52,17.84c-2,5.92-7.64,11.41-14.18,12,2-7.5.28-17.44-2.9-24.12s-8-12.49-12.69-18.25c-.86-4.51-4-24.28,9.71-42.88C332.34,422.17,359.93,411.79,386.84,416.33Z"/></g><path class="cls-2" d="M308.3,462.71a.69.69,0,0,1,.06-.35c.52-2,3.92-3.48,7.6-3.34,20,.79,38.31,6,50.32,14.22a2.54,2.54,0,0,1,1.31,2.25,3.72,3.72,0,0,1-2.71,2.84c-2,.51-3.83-1-4.37-1.48-7.75-6.12-38.75-13.89-47.08-13.46C312.58,463.43,308.51,463.73,308.3,462.71Z"/><path class="cls-2" d="M325.57,512a2.48,2.48,0,0,1,1.13-2.35l2-1.37a74.52,74.52,0,0,1,11.17-6.76c11.36-5.19,25.25-4.28,34.55,2.27a2.15,2.15,0,0,1,.28,3.24,2.71,2.71,0,0,1-3.54.56c-7.92-5.57-19.74-6.34-29.42-1.92a68,68,0,0,0-10.3,6.26l-2,1.39a2.54,2.54,0,0,1-3.46-.4A2,2,0,0,1,325.57,512Z"/><path class="cls-2" d="M327.88,523.62a3.15,3.15,0,0,1,3-.43l2.25.93a60.57,60.57,0,0,1,11.58,5.8c9.93,6.92,14.16,19.84,10.51,32.16a3.34,3.34,0,0,1-3.44,2.25,2.14,2.14,0,0,1-1.94-2.81c3.1-10.49-.5-21.49-8.95-27.39a56,56,0,0,0-10.71-5.32l-2.29-.95a2.19,2.19,0,0,1-.87-3.34A3.39,3.39,0,0,1,327.88,523.62Z"/><path d="M305.7,475.17a53.3,53.3,0,0,1,.19-14.72c2.16-15.5,15.53-30.79,34.06-38.95,17-7.48,35.88-8.71,52.11-8.93,3.49-.05,7-.06,10.46-.06,13.38,0,27.2-.05,40.6-2.56l4.15-.78-1.54,3.72c-7.37,17.72-5,37.74-2,53.21l.65,3.47-3.75-.56c-20.25-3-44.88-2.21-62.75,2.06-3.29.79-7,1.81-9.66,4-4.33,3.52-5.86,6.95-1.54,14.93,1.24,2.3,2.84,5,4.53,7.84,2.45,4.12,5,8.37,6.67,11.86a41,41,0,0,1-25.74,57.95,2.28,2.28,0,0,1-2.94-1.57,2.55,2.55,0,0,1,2-2.89,36.46,36.46,0,0,0,23.55-21.27,37.41,37.41,0,0,0-1.45-30c-1.62-3.34-4.11-7.51-6.51-11.55-1.71-2.89-3.33-5.62-4.61-8-4.88-9-4-15,3-20.7,3.58-2.91,8-4.15,11.95-5.09,17.41-4.17,41-5.17,61.1-2.67-2.54-14.47-4.14-32.18,1.55-48.71-12.61,1.93-25.31,1.95-37.63,2-3.42,0-6.95,0-10.4.05-15.67.22-33.86,1.39-49.92,8.46-16.84,7.41-29,21.12-30.88,34.94s.87,23.81,9.7,34.07c3.94,4.58,8.08,12.45,9.9,16.63,1.66,3.83,2.76,9.86.37,14.31a9,9,0,0,1-5.38,4.42,2.33,2.33,0,0,1-3-1.43,2.54,2.54,0,0,1,1.84-3,3.48,3.48,0,0,0,2.13-1.78c1.43-2.67.78-7.29-.6-10.47-1.73-3.95-5.61-11.37-9.25-15.6C310.36,490.63,306.85,483.43,305.7,475.17Z"/><path class="cls-2" d="M272.5,541.1a2.17,2.17,0,0,1,0-.8,2.78,2.78,0,0,1,3-2c6.46.74,15.35-.25,20.65-4.17,4.34-3.19,8.78-9,7.05-14.9a2.54,2.54,0,0,1,1.79-3,2.34,2.34,0,0,1,3.07,1.38c2.4,8.12-3.36,15.88-9,20-7,5.17-17.64,6.06-24.62,5.25A2.13,2.13,0,0,1,272.5,541.1Z"/><path class="cls-2" d="M303.55,563.14a2,2,0,0,1-.45-.63,2.44,2.44,0,0,1,1.38-3.14c6.13-2.82,13.32-8.28,15.59-14.09,1.84-4.75,2.18-11.58-2.93-15.22a2.17,2.17,0,0,1-.27-3.25,2.72,2.72,0,0,1,3.54-.55c7.08,5,6.77,14,4.36,20.23-3,7.67-11.78,14-18.4,17A2.55,2.55,0,0,1,303.55,563.14Z"/><path class="cls-2" d="M262,499.61a2.55,2.55,0,0,1,1.61-2.6,2.4,2.4,0,0,1,3.23,1.08c1.91,4.5,7.88,8.25,13.61,8.53A15.8,15.8,0,0,0,294,500.26a2.73,2.73,0,0,1,3.51-.74,2.14,2.14,0,0,1,.48,3.21,21.29,21.29,0,0,1-18.34,8.55c-7.5-.37-15.06-5.16-17.59-11.15A2.35,2.35,0,0,1,262,499.61Z"/><path class="cls-2" d="M306.61,471.53a9.36,9.36,0,0,1-.1-1.41c0-2.94,1.28-5.83,2.3-8.15a2.8,2.8,0,0,1,3.3-1.51,2.09,2.09,0,0,1,1.32,2.93c-.89,2-1.9,4.3-1.9,6.29a4.56,4.56,0,0,0,2.05,4.13,2.11,2.11,0,0,1,.81,3.12,2.78,2.78,0,0,1-3.46,1.05A8.33,8.33,0,0,1,306.61,471.53Z"/><path d="M261.76,514.59c-2.16-15.56,1-32.94,15.3-45,13.32-11.23,32.32-13.78,44.2-10.49,6.44,1.78,10.33,5.15,11,9.48a6.71,6.71,0,0,1-1.84,5.63c-2.54,2.86-7.1,4.38-10.27,4.59a35.43,35.43,0,0,1-5.29-.16,24.16,24.16,0,0,0-5.43-.06c-5.62.83-10.58,6.9-10.62,13,0,4.52.34,10.72,1.48,13.29.87,2,5.24,13.8,17.45,18.66,4.84,1.93,10.33,2.54,10.16,4.28-.11,1.14-2.61,2-2.9,2.09-8.52,2.91-23.78-8.48-29.38-22.92-1.42-3.65-1.88-8.58-1.83-15,.05-8.55,7.07-16.8,15.32-18a28.48,28.48,0,0,1,6.66,0,31.34,31.34,0,0,0,4.49.16c2.05-.14,5.08-1.21,6.42-2.71a2.09,2.09,0,0,0,.61-1.81c-.39-2.58-3.25-4.79-7.84-6.06-10.27-2.85-27.49-.54-39.19,9.32C263.58,487,264,509.7,269.86,526.27s19.67,30.1,37.89,37.42c6.66,2.67,20.49,4.16,28.41,3.71,3.61-.21,12.72-2.37,16.06-4.3a2.49,2.49,0,0,1,3.39.66,2.37,2.37,0,0,1-1,3.23c-4.36,2.53-14.28,4.81-18.58,5-8.48.49-23.13-1-30.6-4-19.36-7.78-34.06-22.32-40.32-39.89A68.45,68.45,0,0,1,261.76,514.59Z"/><path class="cls-2" d="M279.32,470.09a2.62,2.62,0,0,1,2-2.74,2.3,2.3,0,0,1,2.95,1.57c.74,3.42,1.58,7.29,3.89,9.93,1.92,2.21,5.64,3.87,8.73,2.59a2.39,2.39,0,0,1,3.2,1.13,2.48,2.48,0,0,1-1.53,3.1c-5.66,2.33-11.44-.28-14.42-3.69s-3.95-7.84-4.8-11.73Z"/><g class="cls-5"><path class="cls-6" d="M285.35,527.9c3.37,7.91,9.3,15,17.67,18.38,3.05,1.24,7.67,1.45,9.24-1.53a5.2,5.2,0,0,0,.48-2.73c-.31-5.84-5-10.2-9.24-14.19-4.5-4.21-8.87-8.62-11.95-13.87a27.36,27.36,0,0,1-3.94-15.68c.22-3.73.24-12.26-5.3-5.6C275.79,500.52,282.18,520.44,285.35,527.9Z"/></g><path class="cls-1" d="M473.6,266.93H562V378.21s70-10,88.06,54.08c0,0,24.31,11.44,29.46,35.35,5.79,26.91-13.72,48.88-20.36,56.17-8.43,9.26-20.66,18.39-39,24.68-68.66,23.56-209.31,2-227.35-63.85-4.55-16.6,0-31.34,1.29-35.23,14.21-42.07,70.78-52.77,77.06-53.87Q472.4,331.24,473.6,266.93Z"/><g class="cls-5"><path class="cls-6" d="M434.59,470.58c3.36,7.91,9.3,15,17.66,18.38,3.05,1.24,7.67,1.45,9.25-1.53a5.16,5.16,0,0,0,.47-2.73c-.3-5.83-5-10.2-9.23-14.18-4.5-4.21-8.87-8.63-11.95-13.87a27.46,27.46,0,0,1-4-15.68c.23-3.73.24-12.26-5.29-5.61C425,443.2,431.41,463.13,434.59,470.58Z"/></g><path class="cls-6" d="M630.67,549.19l-8.42,3.61c2.34-17.11-.72-31.67-9.1-43.29A43.58,43.58,0,0,0,599.7,497l3.63-7.1a58,58,0,0,1,16,14.55C632.91,522.57,631.35,543.17,630.67,549.19Z"/><path class="cls-6" d="M534.79,561.85l-9.6-1.18c24.93-30,9.25-55.78,8.57-56.86l6.58-1.17a19.83,19.83,0,0,1,2.94,2.6c7.27,7.87,5.91,19.69,5.2,25.91C546.79,545.87,539.25,556.52,534.79,561.85Z"/><path class="cls-6" d="M454.88,543.87l-5.89-5a54.94,54.94,0,0,0,30.06-25.25,54.12,54.12,0,0,0,5.86-34.49l9,5.6a60.63,60.63,0,0,1-7.83,32.71A61.42,61.42,0,0,1,454.88,543.87Z"/><path class="cls-6" d="M405.83,504.1l-10.73-5.48c1.59-4.58,10.15-27.84,35.44-40.22,22.93-11.22,44.26-6,49.54-4.54l-3.21,11.8c-6.42-1.74-23.27-4.87-41,3.74C415.25,479.43,407.66,498.5,405.83,504.1Z"/><path class="cls-6" d="M404.55,440.58q-2.6-1.87-5.2-3.74a56.49,56.49,0,0,1,73.84-14.95L469.54,429a59.14,59.14,0,0,0-34.4-6C416.56,425.68,407,437.13,404.55,440.58Z"/><path class="cls-7" d="M498.22,272.17c-2.29,22-11.48,115.82,0,172.69,1.9,9.46,5.44,23.12,16.9,33.14,20.06,17.56,50.07,11.42,54.86,10.45,19.78-4.05,32.44-14.95,43.15-24.23a141.39,141.39,0,0,0,33.22-42.51l3.9,14.15-21.52,36.42-36.91,26.26-29.36,4.93-42.94-3.13s-30.9-12.41-34-24.17-13.48-52.05-13.48-52.05l.07-48.47,1.38-58.41,1.58-47.82,24,2.92"/><path class="cls-6" d="M671.05,514.55,660.28,526c1.13-5.66,5.23-29.48-9.51-49a52.78,52.78,0,0,0-12.83-12.05L643.5,454a57.86,57.86,0,0,1,17,15.36C674.05,487.92,671.83,508.9,671.05,514.55Z"/><path class="cls-8" d="M475.08,320.64s38.91,17.68,87.44,1"/><path class="cls-8" d="M473.5,370.31s38.92,17.68,87.45,1"/><path class="cls-8" d="M471.45,409.09s41.68,24.76,93.67,1.46"/><path class="cls-8" d="M480.51,465s57.65,18.53,97.6-37.12"/><path class="cls-6" d="M557.15,505.84l-5-5.7c4.32-1.44,26.14-9.82,31.82-33,3.56-14.55-1-27.7-4-34.25l7.24-3.35c2,3.89,9.87,20,4.54,39.5C584.52,495.3,559.7,504.91,557.15,505.84Z"/><path class="cls-8" d="M634.54,465.79a116.5,116.5,0,0,0-8.34-44.08"/><path d="M555.29,562.75c-8.19,0-16.56-.34-25-1-35.73-3-69.12-11.86-94-25-24.47-12.95-40.16-29.85-45.38-48.88-4.47-16.33-.55-31.12,1.34-36.72,13.5-40,62.68-52.38,77-55.17l2.43-129h93.45v111a104.59,104.59,0,0,1,35.4,3.36c18.46,5.14,42.41,18.3,52.25,51.77,4.92,2.58,25,14.35,29.81,36.59,4.09,19-3,38.65-21,58.42-10.22,11.23-23.69,19.77-40,25.37C603.65,559.52,580.35,562.75,555.29,562.75ZM476.62,272,474.2,400.18l-2.07.36c-6.25,1.09-61.46,11.84-75.07,52.17-1.75,5.16-5.35,18.77-1.25,33.74,4.83,17.64,19.65,33.45,42.85,45.72C487.5,558,570.49,565.51,619.87,548.56c15.53-5.32,28.28-13.39,37.92-24,16.83-18.48,23.48-36.63,19.75-53.92-4.82-22.41-27.82-33.47-28-33.58l-1-.49-.32-1.12c-7.2-25.63-23.64-42.21-48.85-49.28a99.45,99.45,0,0,0-36.39-3l-2.9.41V272Z"/><path d="M553.19,506.28q-2,0-4.08-.06c-15.46-.41-41.33-1.11-58.88-19.71-13.51-14.32-16.42-32.8-19.49-52.38a162.88,162.88,0,0,1-1.59-36.27l5.09.34a158.14,158.14,0,0,0,1.53,35.14c3,18.78,5.73,36.5,18.17,49.67,16.09,17.06,39.69,17.7,55.3,18.12,30.7.84,55.82-8,74.6-26.32a94,94,0,0,0,24.29-40.76L653,435.5a99.11,99.11,0,0,1-25.63,43C608.43,496.93,583.48,506.28,553.19,506.28Z"/><path d="M597.28,435.47a53.85,53.85,0,0,1-22.48-5C555,421.33,559.78,382,560,380.37l5.06.65c0,.37-4.57,37.25,11.89,44.86,8.93,4.13,23,6.73,35.79,1.66,9.91-3.94,17.24-11.68,21.79-23l4.73,1.89c-5,12.49-13.53,21.43-24.64,25.84A47.12,47.12,0,0,1,597.28,435.47Z"/><path class="cls-9" d="M412.09,425.61c-2.37,9.14-10.64,45.23,10,74.34,10.46,14.72,23.68,21.12,37.79,27.73,68.57,32.15,136,8.6,145.25,5.2,5-1.84,43.26-16.25,54.08-39.17a114.15,114.15,0,0,0,6.93-19.41s1.12-4.63,3.81-24.11h0s17.79,30.19,4.39,55.65S627,548.59,627,548.59L566.85,560l-54.09-2.82-43.06-9.56L429,529.55l-31.63-29.84-5.08-38.2S402.93,427.82,412.09,425.61Z"/><path class="cls-1" d="M517.63,109.33c70.4,0,111.56,82.93,98.27,127.61-16.13,54.27-76.27,55.74-97.77,55.74-19.57,0-81.63-1.47-97.77-55.74C407.08,192.26,447.22,109.33,517.63,109.33Z"/><path class="cls-2" d="M425.5,175.17s-11.94,34.27,4.18,62.87c9.43,16.75,30.07,34.35,48.2,30.67,22-4.46,23.16-36.76,41.34-38.18,20.14-1.58,29.18,37.19,52.23,36,13.52-.69,23.74-14.76,30.84-24.36a80.73,80.73,0,0,0,14.77-36,75.42,75.42,0,0,1-3.63,30.07c-9,26.55-30.5,39.53-37.84,43.8-19.7,11.47-38.37,12.2-48,12.52s-78,1.46-101.67-47.39C411.7,215.83,421.72,185.17,425.5,175.17Z"/><path d="M531.24,296h.21c47.06-2.69,77.48-22.75,88-58,7.57-25.47-1.42-61.45-22.36-89.52-20.59-27.6-48.8-42.8-79.43-42.8-30.35,0-58.24,15-78.52,42.17-21,28.13-29.93,64.36-22.26,90.15,9,30.38,33.65,49.78,71.19,56.09a3.67,3.67,0,0,0,1.22-7.23c-35.09-5.9-57.09-23-65.38-50.95-6.93-23.31,1.75-57.72,21.11-83.68C463.85,126.92,489.65,113,517.63,113c28.26,0,54.38,14.16,73.55,39.85,19.32,25.9,28,60.06,21.21,83-9.66,32.5-37,50.27-81.35,52.79a3.67,3.67,0,0,0,.2,7.33Z"/><path d="M522.62,264.84c12.6,0,17.3-11.6,18-17.73a3.67,3.67,0,0,0-7.29-.87c-.14,1.16-1.68,11.26-10.73,11.26-9.56,0-12-11.43-12-11.55a3.67,3.67,0,1,0-7.19,1.46C504.64,253.43,510.22,264.84,522.62,264.84Z"/><ellipse class="cls-10" cx="565.13" cy="182.14" rx="16.19" ry="21.25"/><ellipse class="cls-10" cx="471.13" cy="183.18" rx="16.19" ry="21.25"/><ellipse class="cls-6" cx="560.97" cy="174.67" rx="3.07" ry="6.26"/><ellipse class="cls-6" cx="463.15" cy="175.88" rx="3.07" ry="6.26"/><path d="M518.56,295.87c6.64,0,11.33-.22,11.84-.24a3.42,3.42,0,0,0-.33-6.84c-.33,0-33.41,1.55-50.28-3.69a3.42,3.42,0,0,0-2,6.53C489.24,295.2,506.9,295.87,518.56,295.87Z"/><path class="cls-11" d="M584.27,390.77v0l-39.83,39.83-.1,0A3.56,3.56,0,0,1,542,427h0l39.41-39.42h0a3.61,3.61,0,0,1,2.1,1.3A3.52,3.52,0,0,1,584.27,390.77Z"/><path class="cls-11" d="M651.34,427.89a15.67,15.67,0,0,0-13.62,7.95h-14a103.42,103.42,0,0,0-24.91-60.15l9.89-9.9a15.66,15.66,0,1,0-11.49-15.1,16.07,16.07,0,0,0,.57,4.18l-9.89,9.89a103.61,103.61,0,0,0-60.15-24.91v-14a15.67,15.67,0,1,0-15.45,0v14a103.68,103.68,0,0,0-60.14,24.92l-9.89-9.9a16,16,0,0,0,.57-4.18,15.72,15.72,0,1,0-11.49,15.1l9.89,9.91a103.48,103.48,0,0,0-24.91,60.14h-14a15.69,15.69,0,1,0,0,15.44h14a103.51,103.51,0,0,0,24.91,60.14l-9.89,9.9a15.65,15.65,0,1,0,11.49,15.09,15.94,15.94,0,0,0-.57-4.17l9.89-9.9a103.54,103.54,0,0,0,60.14,24.91v14a15.67,15.67,0,1,0,15.45,0v-14a103.54,103.54,0,0,0,60.15-24.91l9.89,9.9a15.94,15.94,0,0,0-.57,4.17,15.68,15.68,0,1,0,11.49-15.09l-9.89-9.9a103.45,103.45,0,0,0,24.91-60.14h14a15.66,15.66,0,1,0,13.62-23.39ZM396.78,451.62a11.38,11.38,0,1,1,3.35-8.06A11.34,11.34,0,0,1,396.78,451.62ZM416.1,447H404a15.21,15.21,0,0,0,0-6.93H416.1c0,1.15-.06,2.3-.06,3.46S416.07,445.88,416.1,447ZM604.81,342.64A11.41,11.41,0,1,1,621,358.77a11.4,11.4,0,0,1-19.47-8.08A11.34,11.34,0,0,1,604.81,342.64Zm-5.17,16.41a15.58,15.58,0,0,0,2.17,2.73,15.13,15.13,0,0,0,2.73,2.17L596,372.52q-2.37-2.53-4.9-4.9ZM512,320.31a11.41,11.41,0,1,1,8.06,3.34A11.36,11.36,0,0,1,512,320.31Zm11.53,7.2v12.12c-1.16,0-2.31-.06-3.47-.06s-2.31,0-3.47.06V327.51a15.63,15.63,0,0,0,6.94,0Zm-96.32,34.6a11.4,11.4,0,1,1,8.06-3.34A11.35,11.35,0,0,1,427.18,362.11Zm8.34,1.84a15.36,15.36,0,0,0,4.9-4.9l8.57,8.57q-2.52,2.37-4.89,4.9Zm-.28,180.52a11.41,11.41,0,1,1,3.34-8.06A11.39,11.39,0,0,1,435.24,544.47Zm5.18-16.41a15.36,15.36,0,0,0-4.9-4.9l8.58-8.57c1.58,1.68,3.21,3.32,4.89,4.9ZM528.1,566.8a11.41,11.41,0,1,1-8.07-3.34A11.36,11.36,0,0,1,528.1,566.8Zm-11.54-7.2V547.48c1.16,0,2.31.07,3.47.07s2.31,0,3.47-.07V559.6a15.25,15.25,0,0,0-6.94,0ZM612.88,525a11.39,11.39,0,1,1-8.07,3.34A11.35,11.35,0,0,1,612.88,525Zm-8.34-1.84a15.19,15.19,0,0,0-2.73,2.18,15.52,15.52,0,0,0-2.17,2.72l-8.57-8.57c1.69-1.58,3.32-3.22,4.9-4.9Zm-14-9.08a99.73,99.73,0,1,1,29.21-70.53A99.43,99.43,0,0,1,590.55,514.08ZM636.07,447H624c0-1.14.06-2.31.06-3.47s0-2.31-.06-3.46h12.11a15.91,15.91,0,0,0-.39,3.47A15.75,15.75,0,0,0,636.07,447Zm23.34,4.6a11.41,11.41,0,1,1,3.34-8.06A11.35,11.35,0,0,1,659.41,451.62Z"/><path class="cls-12" d="M662.75,443.56a11.4,11.4,0,1,1-3.34-8.07A11.34,11.34,0,0,1,662.75,443.56Z"/><path class="cls-12" d="M635.68,443.56a15.75,15.75,0,0,0,.39,3.46H624c0-1.14.06-2.31.06-3.47s0-2.31-.06-3.46h12.11A15.91,15.91,0,0,0,635.68,443.56Z"/><path class="cls-12" d="M604.54,523.16a15.19,15.19,0,0,0-2.73,2.18,15.52,15.52,0,0,0-2.17,2.72l-8.57-8.57c1.69-1.58,3.32-3.22,4.9-4.9Z"/><path class="cls-12" d="M624.29,536.43a11.4,11.4,0,1,1-3.34-8.09A11.32,11.32,0,0,1,624.29,536.43Z"/><path class="cls-12" d="M523.5,547.48V559.6a15.25,15.25,0,0,0-6.94,0V547.48c1.16,0,2.31.07,3.47.07S522.34,547.51,523.5,547.48Z"/><path class="cls-12" d="M531.43,574.87a11.39,11.39,0,1,1-3.33-8.07A11.33,11.33,0,0,1,531.43,574.87Z"/><path class="cls-12" d="M449,519.49l-8.57,8.57a15.36,15.36,0,0,0-4.9-4.9l8.58-8.57C445.68,516.27,447.31,517.91,449,519.49Z"/><path class="cls-12" d="M438.58,536.41a11.4,11.4,0,1,1-3.34-8.07A11.35,11.35,0,0,1,438.58,536.41Z"/><path class="cls-12" d="M416,443.55c0,1.16,0,2.33.06,3.47H404a15.21,15.21,0,0,0,0-6.93H416.1C416.07,441.24,416,442.39,416,443.55Z"/><path class="cls-12" d="M400.13,443.56a11.42,11.42,0,1,1-3.35-8.07A11.39,11.39,0,0,1,400.13,443.56Z"/><path class="cls-12" d="M449,367.62q-2.52,2.37-4.89,4.9L435.52,364a15.36,15.36,0,0,0,4.9-4.9Z"/><path class="cls-12" d="M438.58,350.69a11.4,11.4,0,1,1-3.34-8.05A11.38,11.38,0,0,1,438.58,350.69Z"/><path class="cls-12" d="M523.5,327.51v12.12c-1.16,0-2.31-.06-3.47-.06s-2.31,0-3.47.06V327.51a15.63,15.63,0,0,0,6.94,0Z"/><path class="cls-12" d="M531.43,312.24a11.4,11.4,0,1,1-3.33-8.06A11.34,11.34,0,0,1,531.43,312.24Z"/><path class="cls-12" d="M604.54,364,596,372.52q-2.37-2.53-4.9-4.9l8.57-8.57a15.58,15.58,0,0,0,2.17,2.73A15.13,15.13,0,0,0,604.54,364Z"/><path class="cls-12" d="M624.29,350.7a11.44,11.44,0,0,1-7.11,10.58,11.58,11.58,0,0,1-4.3.83,11.41,11.41,0,1,1,11.41-11.41Z"/><path class="cls-12" d="M590.55,373a99.73,99.73,0,1,0,29.21,70.51A99.36,99.36,0,0,0,590.55,373ZM520,531a87.41,87.41,0,1,1,87.4-87.41A87.41,87.41,0,0,1,520,531Z"/><path class="cls-11" d="M520,356.15a87.41,87.41,0,1,0,87.4,87.4A87.41,87.41,0,0,0,520,356.15Zm58.79,28.61c.82.82,1.61,1.66,2.4,2.51l.27.31c.87.95,1.72,1.92,2.54,2.9l.24.29a82.75,82.75,0,0,1,18.54,45.07H546.48a27.76,27.76,0,0,0-2.14-5.26c0-.09-.09-.18-.14-.27A26.86,26.86,0,0,0,542,427l-.23-.32a27.44,27.44,0,0,0-4.91-4.9l39.42-39.42C577.17,383.15,578,383.94,578.82,384.76Zm-35.49,58.8a23.3,23.3,0,1,1-6.83-16.48A23.24,23.24,0,0,1,543.33,443.56Zm-15.58-82.79a82.86,82.86,0,0,1,45.36,18.78L533.27,419.4a27.7,27.7,0,0,0-5.52-2.3Zm-11.19-.28c1.16-.05,2.31-.08,3.47-.08s2.31,0,3.47.08v55.74a27.48,27.48,0,0,0-6.94,0Zm-4.26.28V417.1a28.2,28.2,0,0,0-5.52,2.3L467,379.55A82.86,82.86,0,0,1,512.3,360.77Zm-51.06,24c.81-.82,1.65-1.61,2.5-2.4l39.42,39.42a27.71,27.71,0,0,0-4.9,4.9l-39.42-39.41C459.62,386.42,460.42,385.58,461.24,384.76ZM456,390.48l39.83,39.83a28,28,0,0,0-2.28,5.53H437.24A82.73,82.73,0,0,1,456,390.48Zm-19.15,53.07c0-1.16,0-2.31.08-3.46H492.7a27.4,27.4,0,0,0,0,6.93H437C436.91,445.88,436.88,444.71,436.88,443.55ZM456,496.63a82.74,82.74,0,0,1-18.79-45.35h56.34a27.64,27.64,0,0,0,2.28,5.52Zm5.21,5.72c-.82-.82-1.62-1.65-2.39-2.5l39.41-39.42a28.11,28.11,0,0,0,4.9,4.91l-39.42,39.4C462.89,504,462.05,503.16,461.24,502.35Zm51.06,24A82.73,82.73,0,0,1,467,507.55l39.83-39.83A27,27,0,0,0,512.3,470Zm11.2.28c-1.16,0-2.31.08-3.47.08s-2.31,0-3.47-.08V470.88a26.29,26.29,0,0,0,6.94,0Zm4.25-.28V470a26.51,26.51,0,0,0,5.52-2.28l39.84,39.83A82.73,82.73,0,0,1,527.75,526.34Zm51.07-24c-.82.81-1.65,1.61-2.5,2.39l-39.42-39.4a28.17,28.17,0,0,0,4.91-4.91l39.41,39.42C580.43,500.7,579.64,501.53,578.82,502.35Zm5.21-5.72L544.2,456.8a27.64,27.64,0,0,0,2.28-5.52h56.33A82.73,82.73,0,0,1,584,496.63ZM547.36,447a26.22,26.22,0,0,0,0-6.93H603.1c0,1.15.07,2.3.07,3.46s0,2.33-.07,3.47Z"/><path class="cls-12" d="M581.49,387.58h0L542,427h0l-.23-.32a27.44,27.44,0,0,0-4.91-4.9l39.42-39.42c.85.79,1.68,1.58,2.5,2.4s1.61,1.66,2.4,2.51Z"/><path class="cls-12" d="M603.17,443.55c0,1.16,0,2.33-.07,3.47H547.36a26.22,26.22,0,0,0,0-6.93H603.1C603.14,441.24,603.17,442.39,603.17,443.55Z"/><path class="cls-12" d="M536.5,427.08a23.29,23.29,0,1,0,6.83,16.48A23.19,23.19,0,0,0,536.5,427.08ZM520,460a16.43,16.43,0,1,1,16.43-16.42A16.42,16.42,0,0,1,520,460Z"/><path class="cls-12" d="M581.22,499.85c-.79.85-1.58,1.68-2.4,2.5s-1.65,1.61-2.5,2.39l-39.42-39.4a28.17,28.17,0,0,0,4.91-4.91Z"/><path class="cls-12" d="M523.5,470.88v55.74c-1.16,0-2.31.08-3.47.08s-2.31,0-3.47-.08V470.88a26.29,26.29,0,0,0,6.94,0Z"/><path class="cls-12" d="M492.48,443.56a28.32,28.32,0,0,0,.22,3.46H437c0-1.14-.08-2.31-.08-3.47s0-2.31.08-3.46H492.7A28.48,28.48,0,0,0,492.48,443.56Z"/><path class="cls-12" d="M503.16,465.34l-39.42,39.4c-.85-.78-1.69-1.58-2.5-2.39s-1.62-1.65-2.39-2.5l39.41-39.42A28.11,28.11,0,0,0,503.16,465.34Z"/><path class="cls-12" d="M523.5,360.49v55.74a27.48,27.48,0,0,0-6.94,0V360.49c1.16-.05,2.31-.08,3.47-.08S522.34,360.44,523.5,360.49Z"/><path class="cls-12" d="M503.16,421.79a27.66,27.66,0,0,0-4.9,4.89l-39.42-39.41c.78-.85,1.58-1.69,2.4-2.5s1.65-1.62,2.5-2.4Z"/><path class="cls-11" d="M520,427.13a16.43,16.43,0,1,0,16.43,16.43A16.43,16.43,0,0,0,520,427.13Zm8.6,25a12.14,12.14,0,1,1,3.57-8.6A12.08,12.08,0,0,1,528.63,452.16Z"/><path class="cls-13" d="M278.82,807.07c-17.07-5.91-53.83-53.5-67-71.89,2.3,16.75,3.94,39.72,6.24,50.88,2,7.55-10.83,14.44-25.61,17.07-14.44,2.63-30.85,0-35.77-12.14-11.82-37.75-6.24-172.33-.66-206.79.33-3.28.33-23,24.62-22,13.78.32,30.52,5.58,29.54,22.64-2.63,29.87-2,59.74-1.64,91.25,20.68-20.68,55.14-47.59,67-75.16,6.56-6.57,56.78,20.68,50.87,33.48-15.42,35.45-46.6,58.42-63.67,72.86C285.06,729,322.15,764.73,324.12,766,331.67,769.65,292.93,812,278.82,807.07Z"/><path class="cls-13" d="M491.52,679.71c-3,22.32-21.34,46.28-41.36,35.12-18.05-9.84-21.66-60.39-44.64-35.44-2.3,37.74,0,77.13,4.27,114.88,3.94,12.14-52.85,22-60.73,2-6.89-17.73-7.55-150.34,5.91-175,2.63-4.93,8.21-9.85,22-9.19,11.16.33,30.53,3.61,29.54,18.71,0,0,0,3.61-.32,10.17,11.48-12.14,27.57-24.94,42.67-23.63C476.09,620,495.13,657.39,491.52,679.71Z"/><path class="cls-13" d="M648.62,790.09c-27.69,25.2-77,31-109.09,4.71-29.08-24.09-33.23-67.84,11.9-95.25-42.36-36.83-6.64-91.1,48.18-91.38,46.8-.27,76.43,41,45.69,80.3C679.91,710.62,680.74,761.57,648.62,790.09ZM564.45,746.9c-3.6,30.73,57.32,29.35,62,.27C628.13,716.16,568.05,715.88,564.45,746.9ZM616,655.52c3.88-17.72-33-15.23-37.93,1.39-1.94,7.19,1.38,16.33,10.8,24.36C598.23,676,612.63,667.7,616,655.52Z"/><path class="cls-13" d="M843.72,735.51c6.89,35.12-11.49,70.57-49.24,78.78-28.88,6.24-60.39-4.6-76.8-33.48-21-36.76,18.38-69.91,34.79-38.4,4.59,8.86,18.71,33.48,31.84,23,4.26-3.28,5.25-10.83-2.63-19.69-10.17-10.18-33.48-24-44.64-33.48-38.4-32.5-34.79-88,15.76-103.4,25.93-7.87,57.77-2,80.41,14.78,22.32,17.39,11.16,38.07,4.6,42.67-8.86,6.56-19.37,5.9-21.34,3.28-2.29-3-5.25-8.21-19.69-16.41-21.66-12.15-40.7-.33-12.14,18.38,9.51,5.91,21.33,12.8,28.88,18C823,696.45,839.12,711.22,843.72,735.51Z"/><path d="M272.34,794.61c-17.07-5.91-53.83-53.51-67-71.89,2.3,16.74,3.94,39.72,6.24,50.88,2,7.55-10.83,14.44-25.6,17.07-14.45,2.62-30.86,0-35.78-12.15-11.82-37.74-6.24-172.32-.66-206.79.33-3.28.33-23,24.62-22,13.78.33,30.52,5.58,29.54,22.65-2.63,29.87-2,59.74-1.64,91.25,20.68-20.68,55.14-47.59,67-75.17,6.56-6.56,56.78,20.68,50.88,33.48-15.43,35.45-46.61,58.43-63.68,72.87,22.32,21.67,59.41,57.44,61.38,58.76C325.19,757.19,286.45,799.53,272.34,794.61Z"/><path d="M485,667.25c-3,22.32-21.34,46.28-41.36,35.12C425.63,692.52,422,642,399,666.92c-2.3,37.75,0,77.14,4.27,114.88,3.94,12.15-52.85,22-60.73,2-6.89-17.72-7.55-150.33,5.91-174.94,2.63-4.93,8.21-9.85,22-9.2,11.16.33,30.53,3.62,29.55,18.71,0,0,0,3.61-.33,10.18,11.49-12.15,27.57-24.95,42.67-23.63C469.61,607.51,488.65,644.93,485,667.25Z"/><path d="M643.16,779.58c-27.69,25.2-77,31-109.1,4.71C505,760.2,500.83,716.45,546,689c-42.37-36.82-6.65-91.09,48.18-91.37,46.79-.28,76.42,41,45.69,80.3C674.45,700.11,675.28,751.06,643.16,779.58ZM559,736.38c-3.6,30.74,57.32,29.35,62,.28C622.67,705.65,562.58,705.37,559,736.38ZM610.48,645c3.88-17.72-33-15.23-37.93,1.38-1.94,7.2,1.39,16.34,10.8,24.37C592.76,665.5,607.16,657.19,610.48,645Z"/><path d="M837.24,723.05c6.89,35.12-11.49,70.57-49.24,78.78-28.88,6.23-60.39-4.6-76.8-33.48-21-36.77,18.38-69.92,34.79-38.41,4.59,8.87,18.71,33.48,31.84,23,4.26-3.28,5.25-10.83-2.63-19.69-10.17-10.18-33.48-24-44.64-33.48-38.4-32.5-34.79-88,15.76-103.4,25.93-7.88,57.77-2,80.41,14.77,22.32,17.4,11.16,38.08,4.6,42.67-8.86,6.57-19.37,5.91-21.34,3.29-2.29-3-5.25-8.21-19.69-16.42-21.66-12.14-40.7-.32-12.14,18.38,9.51,5.91,21.33,12.81,28.88,18.06C816.56,684,832.64,698.76,837.24,723.05Z"/></svg>