<svg id="Layer_4" data-name="Layer 4" xmlns="http://www.w3.org/2000/svg" viewBox="0 0 960 960"><defs><style>.cls-1{fill:#848484;}</style></defs><path class="cls-1" d="M228.56,671.34c-20.16-7.63-63.59-69-79.1-92.74,2.72,21.6,4.65,51.24,7.37,65.64,2.32,9.74-12.8,18.63-30.24,22-17.07,3.38-36.45,0-42.27-15.67-14-48.7-7.37-222.31-.77-266.77.38-4.24.38-29.64,29.08-28.37,16.28.42,36.06,7.2,34.89,29.21-3.1,38.54-2.32,77.07-1.94,117.72,24.43-26.67,65.14-61.4,79.1-97,7.76-8.47,67.08,26.68,60.1,43.2-18.22,45.73-55.06,75.37-75.22,94,26.37,27.95,70.18,74.1,72.51,75.8C291,623.06,245.23,677.69,228.56,671.34Z"/><path class="cls-1" d="M479.81,507c-3.48,28.79-25.2,59.71-48.85,45.31-21.32-12.71-25.59-77.91-52.73-45.73-2.72,48.69,0,99.51,5,148.2,4.65,15.67-62.43,28.37-71.73,2.54-8.14-22.86-8.92-193.93,7-225.69,3.1-6.35,9.69-12.71,26-11.86,13.19.42,36.06,4.66,34.9,24.14,0,0,0,4.66-.39,13.12,13.57-15.66,32.57-32.18,50.41-30.48C461.59,430,484.08,478.25,479.81,507Z"/><path class="cls-1" d="M665.4,649.44c-32.71,32.5-90.93,40-128.87,6.07-34.34-31.08-39.25-87.52,14.06-122.88-50-47.51-7.85-117.53,56.92-117.88,55.28-.36,90.28,52.86,54,103.59C702.36,546.92,703.35,612.64,665.4,649.44ZM566,593.71c-4.25,39.65,67.71,37.86,73.27.36C641.2,554.06,570.22,553.7,566,593.71Zm60.84-117.88c4.58-22.86-38.93-19.65-44.81,1.79-2.29,9.28,1.63,21.07,12.75,31.43C605.87,502.26,622.88,491.55,626.81,475.83Z"/><path class="cls-1" d="M895.86,579c8.15,45.3-13.57,91-58.16,101.62-34.12,8.05-71.34-5.93-90.73-43.19-24.81-47.42,21.71-90.19,41.1-49.54,5.43,11.43,22.1,43.19,37.61,29.64,5-4.24,6.21-14-3.1-25.41C810.56,579,783,561.24,769.85,549c-45.37-41.92-41.1-113.48,18.61-133.38,30.63-10.17,68.24-2.54,95,19.05,26.36,22.44,13.18,49.12,5.42,55.05-10.46,8.47-22.87,7.62-25.2,4.23-2.71-3.81-6.2-10.58-23.26-21.17-25.59-15.67-48.08-.42-14.35,23.71,11.24,7.63,25.2,16.52,34.12,23.29C871.44,528.64,890.43,547.69,895.86,579Z"/><path d="M220.91,655.26c-20.17-7.62-63.59-69-79.1-92.74,2.71,21.6,4.65,51.24,7.36,65.64,2.33,9.74-12.79,18.63-30.24,22-17.06,3.39-36.45,0-42.26-15.67-14-48.7-7.37-222.31-.78-266.77.39-4.23.39-29.64,29.08-28.37,16.29.42,36.06,7.2,34.9,29.22-3.1,38.53-2.33,77.06-1.94,117.72,24.43-26.68,65.14-61.4,79.1-97,7.75-8.47,67.08,26.67,60.1,43.19-18.23,45.73-55.06,75.37-75.22,94,26.36,28,70.18,74.11,72.5,75.8C283.33,607,237.58,661.61,220.91,655.26Z"/><path d="M472.16,491c-3.49,28.8-25.2,59.71-48.85,45.31-21.33-12.7-25.6-77.91-52.74-45.73-2.71,48.7,0,99.51,5,148.2,4.66,15.67-62.42,28.38-71.73,2.55-8.14-22.87-8.92-193.94,7-225.7,3.1-6.35,9.7-12.7,26-11.86,13.18.43,36.06,4.66,34.9,24.14,0,0,0,4.66-.39,13.13,13.57-15.67,32.57-32.19,50.4-30.49C453.94,413.9,476.43,462.17,472.16,491Z"/><path d="M659,635.87c-32.71,32.51-90.93,40-128.88,6.08-34.34-31.08-39.25-87.52,14.07-122.89-50.05-47.5-7.85-117.52,56.91-117.88,55.28-.35,90.28,52.87,54,103.6C695.91,533.35,696.89,599.08,659,635.87Zm-99.44-55.72c-4.25,39.65,67.71,37.86,73.27.35C634.74,540.5,563.76,540.14,559.51,580.15Zm60.84-117.88c4.58-22.86-38.92-19.65-44.81,1.78-2.29,9.29,1.63,21.08,12.76,31.44C599.42,488.7,616.42,478,620.35,462.27Z"/><path d="M888.21,563c8.14,45.31-13.57,91-58.16,101.63-34.12,8-71.35-5.93-90.73-43.2C714.5,574,761,531.19,780.42,571.84c5.43,11.43,22.1,43.19,37.61,29.64,5-4.23,6.2-14-3.1-25.4-12-13.13-39.55-30.92-52.74-43.2C716.83,491,721.09,419.4,780.81,399.5c30.63-10.16,68.24-2.54,95,19.05C902.17,441,889,467.67,881.23,473.6c-10.47,8.47-22.88,7.62-25.2,4.24-2.72-3.82-6.21-10.59-23.27-21.18-25.59-15.66-48.08-.42-14.34,23.72,11.24,7.62,25.2,16.51,34.12,23.29C863.78,512.56,882.78,531.61,888.21,563Z"/></svg>